<svg id="Capa_1" data-name="Capa 1" xmlns="http://www.w3.org/2000/svg" viewBox="0 0 550 140"><defs><style>.cls-1{fill:#fff;}.cls-2{fill:#1d1d1b;}</style></defs><path class="cls-1" d="M37.75,121.87a14.81,14.81,0,0,1-2.86-.39c-1.21-.24-1.75-.33-2-.37-1.28,0-4.08.12-8.32.32-.56,0-1,0-1.42,0-.78,0-2.24,0-2.82-1.35a3.61,3.61,0,0,1-.25-1.4,4.39,4.39,0,0,1,1-2.67l.13-.15c.47-.5.67-.75.75-.85a1.9,1.9,0,0,1,.2-.37A9.38,9.38,0,0,0,24,111.22a.52.52,0,0,1,0-.11,4.25,4.25,0,0,0-.28-1.6,11.12,11.12,0,0,1-.59-3,2,2,0,0,1,0-.35,46.27,46.27,0,0,0,.52-5.46,32.11,32.11,0,0,1-1.09-3.15,1.67,1.67,0,0,1-.08-.32,22.3,22.3,0,0,1,0-6.55,1.88,1.88,0,0,1,.35-.82A10.93,10.93,0,0,0,24,87.5a3.11,3.11,0,0,1-.9-2,1.7,1.7,0,0,1,0-.22c.12-1.07.2-2.65.24-4.68,0-.25-.05-1.25-.43-4.68a23.73,23.73,0,0,1-.44-4.68,1.33,1.33,0,0,1,.05-.34c.24-.92.54-2.31.89-4.14.21-1.08.33-1.74.4-2.16a10.69,10.69,0,0,1-.55-1.12,1.77,1.77,0,0,1-.16-.64,98,98,0,0,1,0-10.34,3.47,3.47,0,0,1,.25-1.15v0c0-3.75-.52-4.72-.62-4.88a4.84,4.84,0,0,1-1.15-2.79v-.3l-.22-.24A15.81,15.81,0,0,0,19.67,42a2.43,2.43,0,0,1-.32-.24c-1.66-1.48-2.43-2.78-2.43-4.08,0-.68.27-2.33,2.82-3a7.82,7.82,0,0,1,1.86-.32,2.53,2.53,0,0,1,.73.11l.13.05a4.79,4.79,0,0,0,.69,0,9.59,9.59,0,0,0,1.46-.47,8.37,8.37,0,0,1,2.51-.73c.2,0,.42,0,.65,0a12.31,12.31,0,0,1,2.77.37A22.72,22.72,0,0,0,33,34a5.45,5.45,0,0,0,.72-.1,7.94,7.94,0,0,1,1.43-.16c.77,0,1.86.05,3.34.13s2.44.13,3.11.13a9.18,9.18,0,0,0,1.83-.3,11.44,11.44,0,0,1,2.42-.35l.42,0,.3,0c1.56.39,3.86.85,6.83,1.36.65-.16,1.51-.3,2.6-.45l.27,0a5.73,5.73,0,0,1,2.69.81,1.86,1.86,0,0,0,.36.17,12.93,12.93,0,0,1,2.12-1.17,1.87,1.87,0,0,1,.74-.18l.54,0a13.49,13.49,0,0,1,2.76.31c1.62.4,2.24.53,2.47.58l2,0c2.26,0,3.25,1,3.69,1.86A6.34,6.34,0,0,1,74,40.43a2,2,0,0,1-.76,1.31A1.35,1.35,0,0,0,73,42c0,.27.15.67.33,1.28a6.91,6.91,0,0,1,.32,3.46,19.51,19.51,0,0,1-3.05,6.85,1.79,1.79,0,0,1-.57.59,13.47,13.47,0,0,0-1.86,1.65,34.65,34.65,0,0,1-1.29,4.2,2,2,0,0,1-.47.73A16.57,16.57,0,0,0,65,62.55c-.19.77-.46,1.7-.84,2.83a7.75,7.75,0,0,1-1.12,2,4.68,4.68,0,0,0,0,.72,3.06,3.06,0,0,1-1.77,2.63L61,70.9q-.62,1.63-1.76,4.77a37.12,37.12,0,0,1-3.16,5.51,20.41,20.41,0,0,0-1.73,3.51,3.55,3.55,0,0,1,.57.46,1.85,1.85,0,0,1,.35.48c.39.74,1.1,1.89,2.12,3.43A82.58,82.58,0,0,0,63,96.44c1.1,1.06,2.59,2.68,4.54,4.93a2,2,0,0,1,.3.46,16.69,16.69,0,0,0,1.73,2.57A46.28,46.28,0,0,0,74,108c.76.45,1.84,1.16,3.31,2.16a2.69,2.69,0,0,1,.32.27c.71.75,1.83,1.78,3.32,3.06A17.59,17.59,0,0,1,83.62,115a2,2,0,0,1,.42.39c.13.1.47.35,1.27.87,1.08.75,2.17,1.63,2.17,2.94,0,.57-.23,2.44-3.26,2.44a12.58,12.58,0,0,1-2.47-.36,6.45,6.45,0,0,0-1.27-.18,22.59,22.59,0,0,1-4.09.4q-.73,0-1.44-.06-2.11-.17-4.29-.39a22.89,22.89,0,0,1-2.58.78,2.05,2.05,0,0,1-.49.06l-.32,0c-3.24-.54-4.13-.65-4.37-.67h-.17a3.31,3.31,0,0,1-1.83-.49,2.54,2.54,0,0,1-1.12-2.14,10.45,10.45,0,0,1,.13-2h0a9.11,9.11,0,0,0,.16-1.87,4.29,4.29,0,0,0-.67-.61,15.42,15.42,0,0,1-2-1.57,2.75,2.75,0,0,1-.22-.26c-.48-.68-1.18-1.66-2.12-3A52.45,52.45,0,0,1,50.82,105a1.72,1.72,0,0,1-.25-.35q-.89-1.5-2.83-4.67a22.87,22.87,0,0,0-2.65-3.69,7.28,7.28,0,0,1-1.27-.55,2,2,0,0,1-1-1.31,14,14,0,0,0-1.92-4,17.14,17.14,0,0,0-1.67-1.22,5.67,5.67,0,0,1-.9-.72v.06a2,2,0,0,1,0,.8,26.74,26.74,0,0,0-.56,5.28c0,.12.12.36.29.78a6.2,6.2,0,0,1,.59,2.23,2.45,2.45,0,0,1,0,.38c-.35,1.83-.73,4.84-1.12,9l0,0a3.69,3.69,0,0,1,1.12,2.39,2.58,2.58,0,0,1,0,.39,16,16,0,0,0-.21,2.86,3.89,3.89,0,0,1,1.57,2.08h0a13.38,13.38,0,0,0,.81,1.5l.06.11a6.18,6.18,0,0,1,.84,2.6C41.65,119.42,41.46,121.87,37.75,121.87Zm-.2-38a7.17,7.17,0,0,1,1.76-1.76,8.06,8.06,0,0,0,1.14-1c1.06-2.75,2.85-6.92,5.28-12.31a1.3,1.3,0,0,1,.08-.17c.9-1.58,1.77-3,2.58-4.32a3.15,3.15,0,0,1,.22-.29,19.16,19.16,0,0,0,1.81-2.46c.28-1.21.72-2.82,1.35-4.91a2,2,0,0,1,.87-1.12,7.66,7.66,0,0,0,1.43-1.37A28.93,28.93,0,0,0,56,49.42l-1.65-.19c-2.69-.31-3.79-.38-4.24-.38h0l-.27.16a4.14,4.14,0,0,1-2.26.8,18.1,18.1,0,0,1-3.65-.52,13.78,13.78,0,0,0-2.8-.43,3.81,3.81,0,0,0-2.24.54A2.4,2.4,0,0,0,38,50.55c0,1.24,0,3,0,5.19,0,.52,0,1.48-.13,2.88s-.12,2.28-.12,2.91c0,2.73.08,5.23.24,7.43,0,.12.12.6.57,2.12a9.64,9.64,0,0,1,.33,3.22A10.47,10.47,0,0,1,38,77.84a15.6,15.6,0,0,0-.81,2.29c0,.21,0,.92.24,3C37.44,83.37,37.49,83.63,37.55,83.9Z"/><path class="cls-2" d="M27.77,35.33a10.48,10.48,0,0,1,2.4.34A27.56,27.56,0,0,0,33,36a7.25,7.25,0,0,0,1.08-.13,7,7,0,0,1,1.07-.13c.72,0,1.79.05,3.23.13s2.5.13,3.22.13a11.49,11.49,0,0,0,2.28-.35,9.32,9.32,0,0,1,2-.3h.24c1.68.43,4.15.91,7.39,1.46a21.27,21.27,0,0,1,2.79-.51,3.81,3.81,0,0,1,1.73.57,3.66,3.66,0,0,0,1.7.51h.17a10.38,10.38,0,0,1,2.4-1.46h.45a10.69,10.69,0,0,1,2.33.27c1.68.4,2.6.62,2.77.63h0L70,36.74c1,0,1.59.27,1.87.8A4.78,4.78,0,0,1,72,40.16a4.2,4.2,0,0,0-1.08,1.45,9.08,9.08,0,0,0,.48,2.28,5.26,5.26,0,0,1,.28,2.46,18.18,18.18,0,0,1-2.78,6.2,17.46,17.46,0,0,0-2.59,2.34A28.19,28.19,0,0,1,65,59.38a20.13,20.13,0,0,0-1.83,2.33c-.17.76-.47,1.77-.89,3a6,6,0,0,1-.88,1.52A2.79,2.79,0,0,0,61,68.1c0,.29-.27.6-.79.92a2.46,2.46,0,0,0-1,.85c-.43,1.1-1.06,2.8-1.9,5.12a43.51,43.51,0,0,1-3,5.12A17.64,17.64,0,0,0,52,85.48q0,.26.63.57a3.27,3.27,0,0,1,.82.51c.43.8,1.16,2,2.22,3.6a83.51,83.51,0,0,0,5.88,7.65q1.57,1.51,4.48,4.87a18.19,18.19,0,0,0,2,3,44.12,44.12,0,0,0,4.8,3.92c.72.42,1.81,1.14,3.29,2.15a50.35,50.35,0,0,0,3.73,3.41,14.23,14.23,0,0,1,2.59,1.46,7.67,7.67,0,0,0,1.71,1.26c.84.59,1.26,1,1.26,1.27s-.42.44-1.26.44a12.08,12.08,0,0,1-2.06-.32,8.56,8.56,0,0,0-1.69-.22,2.72,2.72,0,0,0-.43,0,19.09,19.09,0,0,1-3.66.37c-.43,0-.85,0-1.27,0-1.56-.13-3.14-.27-4.74-.44a18.16,18.16,0,0,1-2.78.88q-4.23-.69-4.68-.69h-.18q-1,0-1-.63a8.64,8.64,0,0,1,.06-1.66h0A12.19,12.19,0,0,0,62,114a5.17,5.17,0,0,0-1.46-1.58A14.57,14.57,0,0,1,58.8,111c-.5-.71-1.26-1.77-2.27-3.16a48,48,0,0,1-4.24-4.23c-.59-1-1.54-2.58-2.84-4.71a21.85,21.85,0,0,0-3.35-4.46A4,4,0,0,1,44.77,94a16.73,16.73,0,0,0-2.34-4.86,18,18,0,0,0-2.12-1.58A2.57,2.57,0,0,1,39,85.61c0-.51.49-1.13,1.48-1.86a5.92,5.92,0,0,0,1.74-1.68q1.65-4.23,5.31-12.39,1.34-2.34,2.53-4.24a23.18,23.18,0,0,0,2.21-3q.39-1.77,1.39-5.12a9.72,9.72,0,0,0,2-1.9A30.82,30.82,0,0,0,58,49.77c.34-1.14.42-1.79.25-2a19.88,19.88,0,0,0-3.66-.57c-2.25-.26-3.74-.39-4.48-.39h-.26a2.41,2.41,0,0,0-1.11.47,2.32,2.32,0,0,1-1.17.48,16.32,16.32,0,0,1-3.22-.48,17,17,0,0,0-3.23-.47,5.63,5.63,0,0,0-3.41.92A4.51,4.51,0,0,0,36,50.27c.05,1.23.05,3,0,5.44,0,.51,0,1.43-.12,2.78s-.13,2.36-.13,3q0,4.23.25,7.64c.05.34.26,1.16.64,2.47a7.43,7.43,0,0,1,.25,2.53,8.19,8.19,0,0,1-.76,2.91,16.56,16.56,0,0,0-1,2.78,27.46,27.46,0,0,0,.25,3.6c.26,1.14.57,2.93,1,5.37a29.78,29.78,0,0,0-.63,6,6.23,6.23,0,0,0,.44,1.36,5.06,5.06,0,0,1,.45,1.48c-.38,2-.78,5.21-1.21,9.67a1.88,1.88,0,0,0,.6,1,1.83,1.83,0,0,1,.61,1,22.08,22.08,0,0,0-.26,4c0,.21.31.5.79.85a2.12,2.12,0,0,1,.86,1,11.07,11.07,0,0,0,1,2,5,5,0,0,1,.63,1.7c0,.64-.63,1-1.9,1a13.42,13.42,0,0,1-2.46-.35c-1.14-.23-1.9-.36-2.28-.41-1.26,0-4.11.11-8.53.32-.54,0-1,0-1.33,0-.61,0-.94,0-1-.14a1.67,1.67,0,0,1-.09-.61,2.52,2.52,0,0,1,.63-1.45,5.64,5.64,0,0,0,1.14-1.45,11.52,11.52,0,0,0,2.08-4.3,5.69,5.69,0,0,0-.31-2.59,10,10,0,0,1-.51-2.41,51.62,51.62,0,0,0,.57-6.19A26.19,26.19,0,0,1,24.48,97a19.6,19.6,0,0,1,0-5.94,15.06,15.06,0,0,0,1.7-3.67c.05-.25-.12-.59-.5-1s-.57-.72-.57-.89c.13-1.13.21-2.76.25-4.86,0-.59-.14-2.24-.44-4.93a29.5,29.5,0,0,1-.44-4.3c.25-1,.56-2.39.91-4.27s.54-2.88.54-3a6.42,6.42,0,0,1-.82-1.46,97,97,0,0,1,0-10.11,1.58,1.58,0,0,1,.13-.54,1.78,1.78,0,0,0,.12-.54c0-3.11-.31-5.16-.95-6.13a3.61,3.61,0,0,1-.82-1.7v-.32l.07-.32c0-.29-.32-.76-.95-1.39a18,18,0,0,0-2-1.39c-1.18-1-1.77-1.92-1.77-2.59,0-.46.43-.8,1.29-1a7.39,7.39,0,0,1,1.39-.26h.1a3.79,3.79,0,0,0,1.45.19A7.06,7.06,0,0,0,25.33,36a8.16,8.16,0,0,1,1.93-.6l.51,0m0-4c-.27,0-.55,0-.81,0a10.55,10.55,0,0,0-3.07.87c-.52.19-.81.28-.95.32h0a4.31,4.31,0,0,0-1.3-.19,10,10,0,0,0-2.34.37c-3.2.78-4.34,3.05-4.34,4.9,0,2.51,1.77,4.39,3.1,5.58a4.15,4.15,0,0,0,.64.46c.34.2.66.41,1,.64A7.27,7.27,0,0,0,21,47.45,13.18,13.18,0,0,1,21.36,51a5.2,5.2,0,0,0-.25,1.45,102,102,0,0,0,0,10.54,4.16,4.16,0,0,0,.33,1.29c.09.22.19.43.29.64-.07.37-.16.84-.27,1.46-.34,1.78-.63,3.13-.86,4a3.93,3.93,0,0,0-.12.67A24.77,24.77,0,0,0,21,76.19c.37,3.36.41,4.22.41,4.4,0,2-.11,3.45-.23,4.45,0,.15,0,.3,0,.44a4.58,4.58,0,0,0,.63,2.28,6.1,6.1,0,0,1-.5.94,3.94,3.94,0,0,0-.7,1.66,23.9,23.9,0,0,0,0,7.14,5.18,5.18,0,0,0,.14.66c.36,1.16.68,2.12,1,2.89a38.75,38.75,0,0,1-.47,4.77,4.17,4.17,0,0,0-.06.71,12.65,12.65,0,0,0,.67,3.54,6.63,6.63,0,0,1,.2.85,8.27,8.27,0,0,1-1.43,2.63c-.09.14-.18.29-.26.44s-.24.28-.49.54l-.26.31a6.35,6.35,0,0,0-1.46,3.89,5.47,5.47,0,0,0,.41,2.18c1.1,2.57,3.78,2.57,4.66,2.57.43,0,.94,0,1.56-.06,4-.19,6.73-.29,8-.3.24,0,.74.12,1.74.32a16.6,16.6,0,0,0,3.26.43c4.66,0,5.9-3.11,5.9-5a7.77,7.77,0,0,0-1-3.49l-.13-.23c-.43-.73-.6-1.08-.66-1.2a5.42,5.42,0,0,0-1.42-2.27,10,10,0,0,1,.15-1.57,4,4,0,0,0,.08-.78,5.28,5.28,0,0,0-1.09-3.07c.36-3.62.7-6.29,1-7.94a3.74,3.74,0,0,0,.08-.75,7.9,7.9,0,0,0-.73-3c-.06-.14-.1-.26-.14-.35,0-.66.06-1.24.1-1.75a9.42,9.42,0,0,1,1,2.31,4.05,4.05,0,0,0,2,2.62c.37.2.73.36,1.06.5A25,25,0,0,1,46,101c1.28,2.09,2.22,3.65,2.8,4.63a3.8,3.8,0,0,0,.5.69,58.62,58.62,0,0,0,4.23,4.26l2,2.74a3.11,3.11,0,0,0,.44.52,14.91,14.91,0,0,0,2,1.65c0,.25-.06.44-.09.58h0a5.14,5.14,0,0,0-.14,1.09c0,.31,0,.77,0,1.38a4.65,4.65,0,0,0,5,4.63h.08c.32,0,1.27.17,4.13.64a3.56,3.56,0,0,0,.65.05,4,4,0,0,0,1-.12c.9-.22,1.68-.45,2.36-.69,1.3.14,2.6.25,3.87.36.51,0,1,.06,1.59.06a23.86,23.86,0,0,0,4.19-.39,5.77,5.77,0,0,1,.76.13,14.46,14.46,0,0,0,2.89.4c4.15,0,5.26-2.79,5.26-4.44,0-2.46-2-3.87-3-4.54l-.1-.07c-.56-.37-.86-.58-1-.69a4,4,0,0,0-.67-.56,23.29,23.29,0,0,0-2.68-1.57c-1.34-1.14-2.33-2.06-3-2.72a4.14,4.14,0,0,0-.64-.55c-1.44-1-2.53-1.7-3.32-2.17a49.19,49.19,0,0,1-4-3.23,13.22,13.22,0,0,1-1.43-2.1,3.32,3.32,0,0,0-.6-.92c-2-2.26-3.46-3.89-4.59-5A81.67,81.67,0,0,1,59,87.93c-1.21-1.83-1.75-2.77-2-3.23a3.36,3.36,0,0,0-.32-.51c.27-.56.62-1.21,1.07-2a38.37,38.37,0,0,0,3.3-5.77l0-.08c.62-1.72,1.13-3.1,1.52-4.13A4.91,4.91,0,0,0,65,68.1v0a9.44,9.44,0,0,0,1-2,.49.49,0,0,1,0-.11c.33-1,.59-1.86.79-2.59a12,12,0,0,1,1-1.22,4,4,0,0,0,.93-1.46c.55-1.53,1-2.8,1.23-3.86a7.93,7.93,0,0,1,1.15-1,4,4,0,0,0,1.15-1.18,21.66,21.66,0,0,0,3.34-7.6,9.07,9.07,0,0,0-.38-4.36,1.42,1.42,0,0,1,0-.16A4.09,4.09,0,0,0,76,40.71a8.18,8.18,0,0,0-.57-5A5.68,5.68,0,0,0,70,32.74h-.11l-1.74,0c-.31-.06-.92-.2-2.13-.5l-.1,0a14.7,14.7,0,0,0-3.18-.36l-.64,0a3.83,3.83,0,0,0-1.48.36c-.5.23-1,.46-1.4.71a7,7,0,0,0-2.93-.7,3.08,3.08,0,0,0-.53,0c-1,.13-1.74.25-2.39.39-2.74-.47-4.85-.9-6.29-1.26a4.31,4.31,0,0,0-.61-.1,5.47,5.47,0,0,0-.6,0,13.07,13.07,0,0,0-2.87.4A9.77,9.77,0,0,1,41.6,32c-.63,0-1.63,0-3-.12-1.52-.09-2.66-.14-3.46-.14a10.11,10.11,0,0,0-1.79.19L33,32c-.12,0-.64,0-2.07-.24a13.68,13.68,0,0,0-3.14-.41ZM40,51a2.45,2.45,0,0,1,1.06-.15,12.92,12.92,0,0,1,2.37.38,19.41,19.41,0,0,0,4.08.57,5.91,5.91,0,0,0,3.06-.94c.46,0,1.27.1,2.66.25a19.63,19.63,0,0,1-.84,1.94,6.41,6.41,0,0,1-.85.83,4,4,0,0,0-1.73,2.24c-.58,1.94-1,3.48-1.3,4.69a16.68,16.68,0,0,1-1.4,1.9,4.1,4.1,0,0,0-.45.58c-.83,1.32-1.71,2.8-2.63,4.41a3.41,3.41,0,0,0-.17.33c-1.18,2.62-2.21,5-3.08,7,0-.21,0-.41,0-.61a11,11,0,0,0-.36-3.72c0-.06,0-.13,0-.19-.34-1.16-.46-1.66-.5-1.84-.15-2.12-.23-4.52-.23-7.15,0-.41,0-1.22.12-2.79s.13-2.39.13-3c0-2,0-3.5,0-4.71l0,0Z"/><path class="cls-1" d="M103.69,123a16.25,16.25,0,0,1-3.25-.39l-.14,0c-1.91-.54-2.84-.78-3.28-.89-.79,0-2.3-.08-4.49-.11l-.29,0a6.62,6.62,0,0,0-.72.19,7.88,7.88,0,0,1-2.25.47,2.68,2.68,0,0,1-2.81-2.43A7,7,0,0,1,87.88,115c.74-1.12,1.49-2.22,2.21-3.28a2,2,0,0,1,.71-.64,6.87,6.87,0,0,0,1.31-1A2.77,2.77,0,0,1,92,107.6l.06-.11a36.15,36.15,0,0,0,2.08-4.59,1.3,1.3,0,0,1,.08-.17c.15-.3.39-.8.71-1.48a17.84,17.84,0,0,1,1.24-3,2.33,2.33,0,0,1,.17-.26,3.61,3.61,0,0,0,.07-.59c.05-.88.09-1.46.14-1.82a2.21,2.21,0,0,1,.17-.57c.66-1.4,1.53-3.58,2.58-6.49,0-1.08,0-2.56.21-4.51a2,2,0,0,1,.58-1.26,8.62,8.62,0,0,0,1.29-1.83c.32-1.44.85-3.38,1.62-5.93a2,2,0,0,1,.57-.9c.17-1.38.45-3.07.84-5.15a1.71,1.71,0,0,1,.13-.44,7.36,7.36,0,0,1,1.79-2.23,3.69,3.69,0,0,0,.82-.94,1.55,1.55,0,0,1,.14-.29c.2-.36.82-1.76,2.11-6.92.14-1,.41-2.49.83-4.46l0-.13A19.68,19.68,0,0,1,112,49.59a14.74,14.74,0,0,0,1.27-2.68c.09-.28.34-1.32,1.29-6.31l1-4.24s0-.11,0-.17a31.21,31.21,0,0,1,1.66-4.06,14,14,0,0,1,2.68-3.93,2.22,2.22,0,0,1,.44-.37,2.76,2.76,0,0,1,1.44-.41c1.22,0,2.24.76,3,2.27a2,2,0,0,1,.09,1.67,1.26,1.26,0,0,0-.08.33c.43.57,1,1.3,1.57,2.21a2,2,0,0,1,.09,2.13.31.31,0,0,0,0,.07c.35.86.77,2,1.25,3.41a2.25,2.25,0,0,1,.09.35c.11.72.35,1.78.71,3.15.51.92,1.24,2.23,2.21,3.94a2,2,0,0,1,.26.86,16.52,16.52,0,0,0,.37,2.31c.47,1.39,1.11,3.34,1.94,5.85a2.16,2.16,0,0,1,.09.62,14.64,14.64,0,0,0,.39,2.82,62,62,0,0,1,3,5.46,2.48,2.48,0,0,1,.15.41c.33,1.31.89,3.33,1.68,6,.46,1.65,1.07,3.58,1.84,5.77.34.77.84,1.91,1.49,3.42a1.68,1.68,0,0,1,.15.53c.12.85.36,2,.72,3.53.32,1.25.7,2.61,1.11,4l.06.22a23.53,23.53,0,0,0,.94,3.4c.27.5.69,1.2,1.25,2.08a.8.8,0,0,1,.08.16,104.63,104.63,0,0,1,5.18,13.49s0,.09,0,.14c.24,1,.67,2.48,1.27,4.49.08.17.42.86,1.84,3.37l.8.9a4.11,4.11,0,0,1,1.33,2.66c0,.76-.32,2.58-3.26,3-.82.1-1.6.16-2.4.21l-.44,0a5.5,5.5,0,0,1-1.26-.16l-.44-.1-.34.07a6.16,6.16,0,0,1-1.38.17,2,2,0,0,1-1.33-.5l0,0a2.1,2.1,0,0,1-1,.28,6.3,6.3,0,0,1-2.46-.6,5.85,5.85,0,0,0-.79-.29,1.43,1.43,0,0,1-.29,0,5.16,5.16,0,0,0-.7.14,8.91,8.91,0,0,1-2,.34c-.52,0-3.14-.19-3.14-3.9a15,15,0,0,1,.67-3.69,13.21,13.21,0,0,0,.47-2.54c-.33-.82-.75-1.94-1.27-3.4a1.72,1.72,0,0,1-.11-.46,26.13,26.13,0,0,0-1.77-6c-.22-.35-.52-.7-.82-.7h-.14a4.72,4.72,0,0,0-1.17,1.16l-.07.08c-1.44,1.61-1.95,2.1-2.2,2.33a2,2,0,0,1-.64.37,23.41,23.41,0,0,0-3.31,1.68c-.5.5-1.19,1.16-2.06,2-1.31,1.24-1.66,1.56-2.52,1.56a2,2,0,0,1-1.15-.36,6.68,6.68,0,0,1-1.88-2.26,4.41,4.41,0,0,0-.58-.84c-1.18-.6-2.88-1.49-5.17-2.71a2.24,2.24,0,0,1-.43-.31c-.4-.38-1-.86-1.67-1.42a2.68,2.68,0,0,1-.16.34,2.38,2.38,0,0,1,.16,1.93,13,13,0,0,1-2.08,3.38,5.68,5.68,0,0,0-1.25,2.1,9,9,0,0,0,.52,3.6,20.58,20.58,0,0,1,1,5,3.67,3.67,0,0,1-3.19,4C104.25,123,104,123,103.69,123Zm21-35.35c.64.43,1.65,1.15,3,2.11l.13.1q.78.66,2.16,1.71c-.13-.46-.28-1-.45-1.48a3.17,3.17,0,0,1-2-1.11,2.09,2.09,0,0,1-.26-.46,5.21,5.21,0,0,1-.26-2.58l.12-1.58v-.25a22.72,22.72,0,0,1-1.94-2.91,1.91,1.91,0,0,1-.22-.53c-.49-2-1.32-5.06-2.46-9.07-.33-.71-.75-1.71-1.24-3a.36.36,0,0,1,0-.09q-.08.52-.18,1.11a2,2,0,0,1-.56,1.06c-.12.12-.26.26-.44.42a5,5,0,0,1-.08.62,2.23,2.23,0,0,1-.09.32c-.7,2-1.72,4.89-3,8.74-.4,1.17-.92,2.77-1.55,4.78a34,34,0,0,1-.66,4.28,1.24,1.24,0,0,1-.05.19c1.13-.67,2.64-1.54,4.5-2.6l.42-.52a3.38,3.38,0,0,1,2.66-1.5,2.65,2.65,0,0,1,2.46,2C124.63,87.51,124.66,87.57,124.68,87.63Z"/><path class="cls-2" d="M121.79,29.42c.41,0,.83.39,1.24,1.19a4.68,4.68,0,0,0-.25,1.71c.46.59,1.11,1.5,2,2.72a3.55,3.55,0,0,0-.38,1.26c.38.85.86,2.13,1.45,3.86a36.12,36.12,0,0,0,.82,3.6q.77,1.4,2.34,4.17a18.6,18.6,0,0,0,.44,2.72q.71,2.09,2,5.94a18.27,18.27,0,0,0,.51,3.61,53.25,53.25,0,0,1,3.1,5.56q.5,2,1.7,6.07.7,2.53,1.9,5.94c.34.76.84,1.92,1.52,3.48a36.82,36.82,0,0,0,.76,3.73c.33,1.3.71,2.67,1.13,4.11a26.79,26.79,0,0,0,1.08,3.85c.29.55.76,1.33,1.39,2.34a105.12,105.12,0,0,1,5.06,13.21c.25,1,.69,2.57,1.32,4.68.13.34.83,1.62,2.09,3.86l.95,1.07a2.51,2.51,0,0,1,.82,1.33c0,.55-.53.91-1.58,1.07-.72.09-1.47.15-2.28.19a.9.9,0,0,1-.24,0,4,4,0,0,1-.8-.11,4.68,4.68,0,0,0-.85-.16,4,4,0,0,0-.82.13,4.8,4.8,0,0,1-.95.12,8.68,8.68,0,0,0-1.9-1.13.11.11,0,0,0-.07,0c-.09,0-.16.14-.21.41s-.14.5-.22.5a4.68,4.68,0,0,1-1.68-.44,4.38,4.38,0,0,0-1.48-.44.93.93,0,0,0-.31,0,5.66,5.66,0,0,0-1.24.19,9.06,9.06,0,0,1-1.49.29c-.76,0-1.14-.63-1.14-1.9a15.32,15.32,0,0,1,.6-3.19,12.58,12.58,0,0,0,.54-3.44c-.34-.81-.8-2-1.39-3.67a28.7,28.7,0,0,0-2-6.7,2.84,2.84,0,0,0-3.35-1.71,5.27,5.27,0,0,0-2.15,1.83,28.65,28.65,0,0,1-2,2.15,25.86,25.86,0,0,0-3.86,2c-.5.51-1.24,1.23-2.21,2.15a10.36,10.36,0,0,1-1.14,1,4.84,4.84,0,0,1-1.29-1.61,4.77,4.77,0,0,0-1.24-1.55c-1.18-.59-3-1.51-5.31-2.78q-1.06-1-3.41-2.78a1.24,1.24,0,0,0-.68-.25.67.67,0,0,0-.52.25,11.5,11.5,0,0,1-.32,2.15c0,.13-.2.28-.47.47s-.41.33-.41.41.17.45.5.7.47.48.38.7A11.13,11.13,0,0,1,106,107a7.41,7.41,0,0,0-1.64,3,11,11,0,0,0,.57,4.49,19.49,19.49,0,0,1,.88,4.42c0,1.23-.48,1.9-1.45,2q-.3,0-.63,0a14.52,14.52,0,0,1-2.85-.35c-1.81-.5-3-.82-3.54-.95q-1.14-.06-4.74-.12a1,1,0,0,0-.27,0,5.06,5.06,0,0,0-1.37.29,6.88,6.88,0,0,1-1.65.38c-.5,0-.78-.21-.82-.63a5,5,0,0,1,1.08-3.42c.75-1.13,1.49-2.23,2.21-3.28a11.5,11.5,0,0,0,2.65-2.22,1.51,1.51,0,0,0-.31-1.13c-.3-.51-.4-.85-.32-1A37.58,37.58,0,0,0,96,103.63c.17-.34.45-.91.83-1.71a13.12,13.12,0,0,1,1.13-2.78,2.86,2.86,0,0,0,.45-1.65c0-.8.08-1.34.12-1.64q1.08-2.28,2.78-7a45.4,45.4,0,0,1,.19-4.67,11.52,11.52,0,0,0,1.77-2.53c.3-1.39.85-3.42,1.65-6.07a1.06,1.06,0,0,0,.5,0c.13-1.48.45-3.56,1-6.26a5.86,5.86,0,0,1,1.33-1.58A4.94,4.94,0,0,0,109,66a41.46,41.46,0,0,0,2.34-7.52c.12-1,.4-2.44.82-4.42a17.86,17.86,0,0,1,1.58-3.51,17,17,0,0,0,1.45-3.13q.25-.82,1.33-6.45l1-4.17A27.72,27.72,0,0,1,119.05,33a11.94,11.94,0,0,1,2.34-3.41.75.75,0,0,1,.4-.12m-10.2,64.22a17.24,17.24,0,0,0,2.91-1.2c1.18-.72,3.09-1.84,5.75-3.35a6.27,6.27,0,0,0,.82-.92c.38-.48.74-.73,1.08-.73s.41.25.6.73a2.3,2.3,0,0,0,.53.92c.68.46,1.75,1.22,3.23,2.27q1.26,1.08,4,3.1a1.7,1.7,0,0,0,.95.28,2.4,2.4,0,0,0,1.07-.28c.13,0,.13-.34,0-.88a43.94,43.94,0,0,0-1.39-5.06,1.59,1.59,0,0,0-1-.38,1.68,1.68,0,0,1-1-.38,3.37,3.37,0,0,1-.13-1.64l.13-1.71V83.33a16.29,16.29,0,0,1-2.21-3.16q-.77-3.09-2.53-9.29c-.34-.72-.78-1.77-1.33-3.16a16.75,16.75,0,0,1-.57-2.72,2.57,2.57,0,0,0-1.07-2A1,1,0,0,0,121,63c-.36,0-.63.29-.82.88-.26.78-.51,1.51-.76,2.18a20.83,20.83,0,0,1-.38,3.29c-.21.21-.57.53-1.08,1a2.41,2.41,0,0,1,0,1.14q-1.06,3-3,8.78c-.42,1.23-1,2.91-1.64,5.06a30.88,30.88,0,0,1-.64,4.24,10.58,10.58,0,0,1-1.13,2,2.35,2.35,0,0,0-.45,2c0,.16.21.25.51.25m10.2-68.22h0a4.73,4.73,0,0,0-2.49.71,4.07,4.07,0,0,0-.87.73,15.84,15.84,0,0,0-3,4.45,31.88,31.88,0,0,0-1.74,4.27,2.14,2.14,0,0,0-.09.34l-.67,2.94-.28,1.23,0,.14c-.93,4.88-1.17,5.86-1.23,6l0,.13a16,16,0,0,1-1.1,2.23A21.88,21.88,0,0,0,108.31,53c0,.09,0,.17-.07.26-.41,2-.69,3.43-.84,4.5-1.26,5-1.79,6.14-1.89,6.32s-.11.21-.16.32a4.35,4.35,0,0,1-.42.44,9,9,0,0,0-2.24,2.87,3.92,3.92,0,0,0-.28.88c-.34,1.82-.6,3.37-.78,4.67a4,4,0,0,0-.57,1.17c-.73,2.42-1.25,4.32-1.59,5.76a6.69,6.69,0,0,1-.82,1.17,3.92,3.92,0,0,0-1.16,2.51c-.15,1.8-.22,3.22-.22,4.33-1,2.68-1.78,4.69-2.38,6a4.14,4.14,0,0,0-.35,1.15c0,.28-.09.77-.16,2v0l0,0a18.71,18.71,0,0,0-1.34,3.2l-.62,1.29a1.66,1.66,0,0,0-.15.33,34.85,34.85,0,0,1-2,4.33,2,2,0,0,0-.12.21,4.23,4.23,0,0,0-.38,2.65,3.91,3.91,0,0,0-1.37,1.25c-.72,1-1.46,2.15-2.22,3.29a8.87,8.87,0,0,0-1.73,6.1,4.64,4.64,0,0,0,4.79,4.19,9.17,9.17,0,0,0,2.85-.57l.24-.07h.13c2.37,0,3.6.07,4.24.1l3,.82.27.07a17.92,17.92,0,0,0,3.65.43c.35,0,.69,0,1,0l.14,0c3-.39,4.93-2.74,4.93-6a22,22,0,0,0-1-5.5,9,9,0,0,1-.48-2.67,7.59,7.59,0,0,1,.86-1.28,17.91,17.91,0,0,0,2.07-3.17c1.84,1,3.29,1.74,4.39,2.3l.15.26a8.57,8.57,0,0,0,2.48,2.91,4,4,0,0,0,2.29.72c1.65,0,2.49-.79,3.88-2.09.8-.77,1.44-1.38,1.93-1.87a20,20,0,0,1,2.77-1.4,3.94,3.94,0,0,0,1.26-.75,22.64,22.64,0,0,0,1.87-1.93,18,18,0,0,1,1,3.78,4.25,4.25,0,0,0,.22.92c.44,1.23.81,2.22,1.11,3a13.93,13.93,0,0,1-.37,1.74,17.63,17.63,0,0,0-.73,4.2c0,4.05,2.67,5.9,5.14,5.9a10.5,10.5,0,0,0,2.43-.4l.21,0,.32.13a8.31,8.31,0,0,0,3.24.76,3.5,3.5,0,0,0,.78-.08,4,4,0,0,0,1.62.33,7.82,7.82,0,0,0,1.71-.2,7.23,7.23,0,0,0,1.71.22,5.74,5.74,0,0,0,.6,0c.83-.05,1.63-.11,2.39-.2l.16,0c4.71-.75,4.95-4.31,4.95-5a6,6,0,0,0-1.86-4l-.63-.72c-1.09-1.93-1.48-2.67-1.61-2.94-.57-1.9-1-3.33-1.2-4.24,0-.09-.05-.18-.08-.28A107.54,107.54,0,0,0,148,93.47l-.18-.31c-.56-.89-.9-1.47-1.11-1.84a20.56,20.56,0,0,1-.8-2.92c0-.15-.07-.3-.11-.44-.4-1.38-.77-2.71-1.09-3.95-.34-1.41-.57-2.52-.68-3.3a4.19,4.19,0,0,0-.29-1q-1-2.22-1.47-3.36c-.74-2.12-1.33-4-1.76-5.53,0,0,0,0,0-.08-.78-2.63-1.34-4.61-1.66-5.9a4,4,0,0,0-.3-.82c-1.14-2.27-2.1-4-2.91-5.32a11.33,11.33,0,0,1-.28-2.06,4,4,0,0,0-.19-1.24q-1.22-3.69-1.9-5.76a14.22,14.22,0,0,1-.32-1.91,3.9,3.9,0,0,0-.51-1.72c-.89-1.57-1.59-2.81-2.08-3.7a26.3,26.3,0,0,1-.6-2.69,5.11,5.11,0,0,0-.17-.7c-.37-1.09-.71-2-1-2.78a4,4,0,0,0-.57-3.32q-.59-.86-1-1.5a4,4,0,0,0-.4-2.5c-1.52-2.92-3.66-3.35-4.79-3.35ZM117.26,86c.59-1.89,1.08-3.4,1.46-4.49,1-2.93,1.81-5.33,2.45-7.16.83,2.92,1.44,5.2,1.83,6.81a4.07,4.07,0,0,0,.43,1.06c.49.83.94,1.55,1.36,2.16a4.3,4.3,0,0,0-2.64-.91,5.29,5.29,0,0,0-4.23,2.27l-.15.19-.53.3a1.79,1.79,0,0,1,0-.23Z"/><path class="cls-1" d="M201.48,123.07a9.65,9.65,0,0,1-3.15-.72,4.75,4.75,0,0,0-1.51-.37l-.27,0-1.72,0a7,7,0,0,1-1.06,0c-1.11-.11-2.08-.17-2.89-.17a8.67,8.67,0,0,0-1.81.15,3,3,0,0,1-.42,0,11.49,11.49,0,0,1-2.43-.37,8.47,8.47,0,0,0-1.68-.26,8.93,8.93,0,0,0-1.85.27,13.63,13.63,0,0,1-2.77.36,2.16,2.16,0,0,1-.56-.08l-2.7-.8c-1,0-2.3.1-4,.27-2,.2-3.48.29-4.52.29-4.49,0-7.57-1-9.41-3.15a.39.39,0,0,1-.08-.1,6.61,6.61,0,0,1-1.26-3.47,1.7,1.7,0,0,1,0-.22c0-.13,0-.28,0-.43a1.87,1.87,0,0,1,.05-.53c0-.54,0-1.43,0-2.88a7.71,7.71,0,0,1,.52-2.37,6.27,6.27,0,0,0,.29-1.13,2.59,2.59,0,0,0-.22-.4,4.87,4.87,0,0,1-.84-2.55,7.72,7.72,0,0,1,.56-2.59,11.56,11.56,0,0,0,.53-1.62,1.38,1.38,0,0,1,0-.2,11.07,11.07,0,0,0,.34-2.4c-.49-2.93-.88-5.12-1.17-6.51a2.27,2.27,0,0,1,0-.52c.24-4.06.52-7.21.81-9.35a15.75,15.75,0,0,0-.48-2.85,18.8,18.8,0,0,1-.59-4,1.81,1.81,0,0,1,.07-.52A19.73,19.73,0,0,1,158.65,70a18.93,18.93,0,0,0-.18-1.92,7.6,7.6,0,0,1,.31-3.66,13.52,13.52,0,0,1,3.81-5,1.78,1.78,0,0,1,.31-.23A29.15,29.15,0,0,1,167,57a19.29,19.29,0,0,0,1.77-2,1.93,1.93,0,0,1,.27-.3,18.41,18.41,0,0,1,4.82-3.17c1.52-.7,2.7-1.22,3.6-1.57.78-.77,1.37-1.37,1.75-1.82a14.73,14.73,0,0,0,1.48-2.23,1.91,1.91,0,0,1,.86-.87c2.39-1.26,4.22-2.14,5.58-2.69a46.52,46.52,0,0,0,5.32-5,2.42,2.42,0,0,1,.33-.31,3.29,3.29,0,0,1,1.19-.53,2,2,0,0,1,.21-1.29,7.68,7.68,0,0,1,2.2-2.29,3.22,3.22,0,0,0,.56-.5v0c.21-1.2.86-4.87,3.8-4.87,1.64,0,2.84,1.21,3.58,3.59a16.45,16.45,0,0,0,2.39,2.58,1.88,1.88,0,0,1,.43.46,55.45,55.45,0,0,1,3.16,5.08,10.23,10.23,0,0,0,1.06.74c1.21.76,2.32,1.66,2.32,3a2.52,2.52,0,0,1-.83,1.92c-1.2,1.23-3.2,2-6.12,2.35a20.14,20.14,0,0,0-4.34.93A35.57,35.57,0,0,0,199.5,51a1.81,1.81,0,0,1-.47.4c-2.33,1.39-4.14,2.44-5.37,3.12-2.93,2.2-5.1,3.92-6.47,5.13-2,1.77-3.77,3.19-5.2,4.23s-2.62,2-3.47,2.63a1,1,0,0,0-.05.22,4.75,4.75,0,0,1-.84,2,2,2,0,0,1-1.21.72,14.06,14.06,0,0,1-2.24.23l-.11.14a8.15,8.15,0,0,1-1.38,1.43c-.13.11-.22.2-.28.26a4.13,4.13,0,0,0,.2,1,9.37,9.37,0,0,1,.59,2.72c0,2.24-.12,3.89-.25,5.09q.13,1.77.37,5.92c.18,2.65.24,4.7.19,6.25a2,2,0,0,1,0,.42,12.8,12.8,0,0,1-.66,2,6.4,6.4,0,0,0,.26.87,2.12,2.12,0,0,1,.14.75,17.56,17.56,0,0,1-.49,3.48,8.88,8.88,0,0,0-.28,2.55,11.92,11.92,0,0,0,.75,4.23,3.21,3.21,0,0,0,.93.13,20.05,20.05,0,0,0,3.52-.5,23.57,23.57,0,0,1,4.38-.58h3a2,2,0,0,1,1.18.39c.27.2.52.38.74.56h.26c.46,0,1,0,1.76-.06l.53,0a18.16,18.16,0,0,1,1.85.12c1.14.13,1.6.15,1.77.15a2.58,2.58,0,0,0,.84-.1.37.37,0,0,0,0-.11,7.71,7.71,0,0,0-.44-1.76,10.46,10.46,0,0,1-.64-3,42.23,42.23,0,0,1,.59-5.3,15.07,15.07,0,0,0,.31-4.43s0-.11,0-.11a1.35,1.35,0,0,0-.3-.38l-.19-.21s-.19-.25-1-1.18c-1.22-.78-2.16-1.34-2.79-1.67a2.14,2.14,0,0,1-.56-.43c-2.23-2.5-2.66-3.47-2.66-4.37,0-.55.2-3.27,4.09-3.27a17.29,17.29,0,0,1,2.18.21,12.58,12.58,0,0,0,1.55.17c1.45,0,3.69.13,6.86.38.21,0,.57,0,1.42.14l.11,0a5.65,5.65,0,0,0,1,.09,11.59,11.59,0,0,0,1.22-.41,8.12,8.12,0,0,1,2.7-.66A3.24,3.24,0,0,1,210.75,84a6.1,6.1,0,0,1-.88,2.93c-.45.8-.9,1.55-1.35,2.22a1.7,1.7,0,0,1-.33.38l-.27.24c.06.33.15.73.27,1.23a9.49,9.49,0,0,1,.39,3.52l0,.15a32.23,32.23,0,0,1-1.22,4.42c0,.67.1,2,.19,5V107a6.72,6.72,0,0,0,.14,1.38,6.26,6.26,0,0,1,1.17,3.35,2.17,2.17,0,0,1,0,.26q0,.39-.06,2.1a2.48,2.48,0,0,0,.17,1.24l.09.2c1,2.67,1,4.42.23,5.66-.67,1-1.94,1.59-3.75,1.59a3.8,3.8,0,0,1-1.66-.46l-.1.06A4.31,4.31,0,0,1,201.48,123.07Z"/><path class="cls-2" d="M200.78,29.54c.72,0,1.31.84,1.77,2.53a19.87,19.87,0,0,0,3,3.22,50.65,50.65,0,0,1,3.16,5.12,6.72,6.72,0,0,0,1.64,1.27c.93.59,1.39,1,1.39,1.32a.51.51,0,0,1-.19.45c-.84.92-2.51,1.53-5,1.83q-4.24.63-5.25,1.26a38.22,38.22,0,0,0-3.29,3.1c-2.4,1.43-4.21,2.49-5.43,3.16q-4.56,3.42-6.7,5.31-3,2.6-5.06,4.11c-1.73,1.35-3,2.32-3.86,2.91a2.54,2.54,0,0,0-.44,1.14,3.14,3.14,0,0,1-.44,1.2,11.26,11.26,0,0,1-1.92.19,4.47,4.47,0,0,1-.86-.07c-.43.51-.71.87-.86,1.08a7.24,7.24,0,0,1-1.07,1.07,2.44,2.44,0,0,0-.92,1.27,5,5,0,0,0,.25,2.08,9.83,9.83,0,0,1,.51,2.15c0,2.24-.13,3.92-.25,5.06q.12,1.71.38,6.07c.16,2.57.23,4.59.19,6.07a7.89,7.89,0,0,1-.83,2.21,11.88,11.88,0,0,0,.51,1.9,16.5,16.5,0,0,1-.44,3.06,10.64,10.64,0,0,0-.32,3.19c.21,3.21.74,5.1,1.58,5.69a4.57,4.57,0,0,0,2.09.45,22,22,0,0,0,3.92-.54,21.94,21.94,0,0,1,4-.54h3c.46.34.84.63,1.14.89a6.29,6.29,0,0,0,1,.06c.49,0,1.11,0,1.87-.06a2.68,2.68,0,0,1,.42,0c.41,0,1,0,1.63.11a19.81,19.81,0,0,0,2,.16c1.9,0,2.85-.74,2.85-2.21a9,9,0,0,0-.54-2.37,9.2,9.2,0,0,1-.54-2.37,41.32,41.32,0,0,1,.57-5,16.58,16.58,0,0,0,.32-5,2.67,2.67,0,0,0-.89-1.65c-.12-.16-.57-.67-1.33-1.51-1.39-.89-2.44-1.52-3.16-1.9-1.43-1.6-2.15-2.61-2.15-3,0-.85.7-1.27,2.09-1.27a17,17,0,0,1,1.9.19,14.59,14.59,0,0,0,1.83.19c1.39,0,3.65.13,6.76.38.17,0,.59,0,1.27.13a7.73,7.73,0,0,0,1.33.12,7.09,7.09,0,0,0,1.92-.53,6.84,6.84,0,0,1,2-.54c1,0,1.45.46,1.45,1.39a4.21,4.21,0,0,1-.63,2c-.42.76-.85,1.45-1.27,2.09a1.81,1.81,0,0,1-1.07.56,12.88,12.88,0,0,0,.47,2.88,7.91,7.91,0,0,1,.35,2.75,28,28,0,0,1-1.3,4.56.08.08,0,0,1,0,0s0,0,0,.09l0-.06c0,.22.12,2,.23,5.37V107a4.37,4.37,0,0,0,.56,2.62,4.4,4.4,0,0,1,.76,2.37c0,.25,0,.93-.06,2a4.43,4.43,0,0,0,.38,2.22c.72,1.93.86,3.22.44,3.85-.29.47-1,.7-2.08.7a2.46,2.46,0,0,1-.86-.29,2.44,2.44,0,0,0-.79-.28,3.07,3.07,0,0,0-1.17.47,2.3,2.3,0,0,1-1.23.41,8.08,8.08,0,0,1-2.47-.6,6.7,6.7,0,0,0-2.19-.49,1.72,1.72,0,0,0-.33,0l-1.66,0a6.74,6.74,0,0,1-.81,0,29.56,29.56,0,0,0-3.14-.19,10.64,10.64,0,0,0-2.23.19,10.91,10.91,0,0,1-2-.32,10.84,10.84,0,0,0-2.12-.31,11.43,11.43,0,0,0-2.28.31,11.71,11.71,0,0,1-2.34.32l-3-.89c-1,0-2.54.1-4.45.29s-3.37.28-4.33.28c-3.84,0-6.47-.82-7.91-2.46a4.77,4.77,0,0,1-.85-2.46c0-.12,0-1.41,0-3.86a6.66,6.66,0,0,1,.41-1.74,6.34,6.34,0,0,0,.41-1.87,2.92,2.92,0,0,0-.53-1.36,2.89,2.89,0,0,1-.54-1.48,6,6,0,0,1,.44-1.9,10.61,10.61,0,0,0,.63-2.08,11.54,11.54,0,0,0,.38-3c-.5-3-.9-5.27-1.2-6.7.25-4.13.53-7.25.82-9.36a17.79,17.79,0,0,0-.53-3.41,17.33,17.33,0,0,1-.54-3.6,15.88,15.88,0,0,1,1.45-3.86,14.08,14.08,0,0,0-.19-2.72,5.66,5.66,0,0,1,.19-2.65,11.67,11.67,0,0,1,3.29-4.24,23.58,23.58,0,0,1,4.24-2.15,25.84,25.84,0,0,0,2.27-2.59,16.41,16.41,0,0,1,4.3-2.81c1.69-.78,3-1.34,3.86-1.68,1-1,1.75-1.72,2.21-2.27a18.66,18.66,0,0,0,1.71-2.59,58.19,58.19,0,0,1,5.68-2.72A49.81,49.81,0,0,0,194,38.64a3,3,0,0,1,1.17-.31,1.68,1.68,0,0,0,1.17-.51,3.18,3.18,0,0,0-.38-1.64,5.79,5.79,0,0,1,1.64-1.65c.85-.63,1.29-1.22,1.33-1.77.38-2.15,1-3.22,1.83-3.22m-41.4,84.71c0,.17,0,.35,0,.51h0a3.36,3.36,0,0,1,0-.52m41.4-88.71c-2,0-4.58,1-5.63,5.85a9.26,9.26,0,0,0-2.68,2.87,3.91,3.91,0,0,0-.35.85,5.39,5.39,0,0,0-.5.33,4.29,4.29,0,0,0-.66.62,41.19,41.19,0,0,1-4.84,4.54c-1.39.59-3.18,1.46-5.47,2.66A3.91,3.91,0,0,0,178.94,45a14.61,14.61,0,0,1-1.25,1.87c-.22.26-.62.68-1.31,1.36-.88.36-2,.85-3.32,1.47a20.19,20.19,0,0,0-5.34,3.51,3.41,3.41,0,0,0-.53.61,18.83,18.83,0,0,1-1.31,1.51,33.47,33.47,0,0,0-4,2.13,3.84,3.84,0,0,0-.61.45,15.47,15.47,0,0,0-4.33,5.74,9.29,9.29,0,0,0-.44,4.55.34.34,0,0,0,0,.1c.07.56.11,1,.14,1.25a23.54,23.54,0,0,0-1.3,3.76,4.07,4.07,0,0,0-.14,1,21,21,0,0,0,.64,4.5,16.12,16.12,0,0,1,.42,2.32c-.29,2.21-.55,5.26-.8,9.31a4.13,4.13,0,0,0,.07,1.05c.28,1.33.66,3.43,1.13,6.26a11.82,11.82,0,0,1-.29,1.81c0,.1,0,.2-.06.3a11.74,11.74,0,0,1-.41,1.24,9.5,9.5,0,0,0-.7,3.3,6.58,6.58,0,0,0,.93,3.25l-.06.19a9.64,9.64,0,0,0-.62,3v2.67a3.6,3.6,0,0,0-.06.81l0,.49c0,.09,0,.18,0,.27a8.65,8.65,0,0,0,1.66,4.51l.16.2c2.25,2.58,5.82,3.83,10.92,3.83,1.11,0,2.65-.1,4.72-.3,1.44-.14,2.61-.23,3.49-.26q1,.3,2.43.72a3.82,3.82,0,0,0,1.11.16,14.87,14.87,0,0,0,3.19-.41,7.36,7.36,0,0,1,1.43-.22,8.3,8.3,0,0,1,1.25.22,13.36,13.36,0,0,0,2.86.41,4,4,0,0,0,.84-.09,6.76,6.76,0,0,1,1.39-.1,25.44,25.44,0,0,1,2.65.16,10.75,10.75,0,0,0,1.3.06l1.78,0h.21a4.51,4.51,0,0,1,.82.24,11.33,11.33,0,0,0,3.84.84,6.14,6.14,0,0,0,2.52-.56,5.21,5.21,0,0,0,1.53.25c3.13,0,4.68-1.36,5.43-2.51,1.53-2.34.79-5.2,0-7.43a2.88,2.88,0,0,0-.13-.31c0-.05,0-.15,0-.33.06-1.56.06-2,.06-2.21a4.71,4.71,0,0,0,0-.53,9,9,0,0,0-1.26-3.89c0-.15,0-.36,0-.64V104.2a.53.53,0,0,0,0-.13c-.07-2.44-.13-3.83-.17-4.65a38.4,38.4,0,0,0,1.16-4.29c0-.1,0-.2.05-.29a11,11,0,0,0-.43-4.3l0-.13.08-.12c.48-.71,1-1.51,1.43-2.36a7.91,7.91,0,0,0,1.14-3.9,5.24,5.24,0,0,0-5.45-5.39,9.85,9.85,0,0,0-3.41.79,7.58,7.58,0,0,1-.77.27l-.36,0-.21,0c-.83-.11-1.26-.14-1.55-.15-3.2-.26-5.48-.39-7-.39,0,0-.31,0-1.27-.15a17.89,17.89,0,0,0-2.46-.23c-4.2,0-6.09,2.65-6.09,5.27,0,1.82,1.07,3.35,3.17,5.7a4.28,4.28,0,0,0,1.11.87c.39.2,1.11.61,2.43,1.44l.76.87a1.83,1.83,0,0,0,.13.16,16.13,16.13,0,0,1-.32,3.32.5.5,0,0,0,0,.12,38.59,38.59,0,0,0-.62,5.6,10.15,10.15,0,0,0,.49,2.8,18,18,0,0,0-1.88-.12c-.26,0-.49,0-.71,0-.45,0-.84,0-1.16,0l-.25-.17a4,4,0,0,0-2.35-.77h-3a25.25,25.25,0,0,0-4.78.62c-1.25.25-2,.37-2.53.42a21.85,21.85,0,0,1-.27-2.36c0-.06,0-.12,0-.18a6.79,6.79,0,0,1,.25-1.91,19.33,19.33,0,0,0,.53-3.9,4,4,0,0,0-.29-1.49v0c.17-.48.33-1,.49-1.63a3.56,3.56,0,0,0,.11-.86c.05-1.61,0-3.72-.19-6.44s-.27-4.55-.36-5.75c.12-1.24.2-2.89.24-5v-.08a10.66,10.66,0,0,0-.6-3c.22-.21.41-.4.57-.58.5,0,1-.11,1.6-.21A4,4,0,0,0,179.19,70a6.18,6.18,0,0,0,1.1-2.32c.78-.58,1.75-1.32,2.93-2.24,1.47-1.07,3.24-2.51,5.28-4.28,1.33-1.18,3.42-2.84,6.25-5,1.25-.7,3-1.72,5.3-3.09a4,4,0,0,0,.95-.79A28.91,28.91,0,0,1,203.46,50a28.5,28.5,0,0,1,3.61-.71c3.31-.4,5.66-1.34,7.19-2.86A4.46,4.46,0,0,0,215.72,43c0-2.64-2.27-4.08-3.24-4.7-.26-.16-.45-.29-.59-.39-.69-1.26-1.69-2.86-3.06-4.87a4.07,4.07,0,0,0-.85-.91,12.72,12.72,0,0,1-1.83-2c-1.31-3.79-3.61-4.62-5.37-4.62Z"/><path class="cls-1" d="M225.32,122.05a3,3,0,0,1-.95-.15,14.73,14.73,0,0,0-1.8-.48,3,3,0,0,1-2.67-2.87,8,8,0,0,1,1.65-4.14,18.94,18.94,0,0,0,1.41-2.47,31.86,31.86,0,0,0,1.31-5.77A31.39,31.39,0,0,0,224,99c-.05-.13-.17-.41-.43-.95a5.33,5.33,0,0,1-.69-2.35,16.79,16.79,0,0,1,.49-3.6c.33-1.47.53-2.43.62-2.89a30.15,30.15,0,0,0,.28-4.19c0-.64-.06-1.55-.18-2.7,0,0,0-.07,0-.1-.11-2.2-.13-2.81-.13-3.08,0-1.53-.08-3.77-.24-6.66a2.32,2.32,0,0,1-1.21-2,2.11,2.11,0,0,1,0-.25,3.29,3.29,0,0,1,1.47-2.3,17.78,17.78,0,0,0-.21-2.68,35.32,35.32,0,0,1-.39-4.06,1.67,1.67,0,0,1,0-.32,25.75,25.75,0,0,0,.22-3.41,2.52,2.52,0,0,1-1.38-2.22v-.1a14.37,14.37,0,0,1,1.15-4.23,10.62,10.62,0,0,0,.87-3.09,2.8,2.8,0,0,0-.39-1.14c-.44-.81-.84-1.6-1.19-2.34a2.19,2.19,0,0,1-.12-.33,5,5,0,0,0-.53-1.13,21,21,0,0,0-1.71-1.41c-.28-.17-.91-.59-2.64-1.76a6.89,6.89,0,0,1-2.88-3.05l-.06-.17a3,3,0,0,1,1-3.43,4,4,0,0,1,2.51-.81h.37c1.25.08,2.46.12,3.59.12a34.27,34.27,0,0,0,6-.47l.21,0h.44a27.7,27.7,0,0,1,3.37.31c.13,0,.52-.08,1.36-.26a5,5,0,0,1,1-.09,3.36,3.36,0,0,1,2.45,1l.15.16a11.3,11.3,0,0,1,1.74,3.79c.63,2.07.88,2.82,1,3.1a13.65,13.65,0,0,0,1.71,2.68A48,48,0,0,0,245.5,46a16,16,0,0,1,2.19,1.42,2.05,2.05,0,0,1,.71,1,10.66,10.66,0,0,0,1,2.11,23.12,23.12,0,0,1,3.08,1.57,1.94,1.94,0,0,1,.91,1.2,8.53,8.53,0,0,0,.56,1.33c.27.27,1,1,3,2.84l.12.12,1.53,1.69a1.37,1.37,0,0,0,.39.34h.12a1.91,1.91,0,0,0,.19-.48v0a19.13,19.13,0,0,0-.52-3.6,34.66,34.66,0,0,1-1.23-4.42,2.13,2.13,0,0,1,0-.71c.24-1.67.42-4.3.54-7.83-.24-.57-.55-1.34-.92-2.29a.69.69,0,0,1,0-.1,16,16,0,0,0-.71-1.45,5,5,0,0,1-1-2.72c0-1.64,1.07-3.39,4.08-3.39a16,16,0,0,1,2.38.27,10.55,10.55,0,0,0,1.69.18h.2c1.39-.1,2.42-.16,3.17-.16a6.61,6.61,0,0,1,1.35.11h.17a12.53,12.53,0,0,0,1.8-.18,16.86,16.86,0,0,1,3.34-.6,2.94,2.94,0,0,1,3,3.13,11.26,11.26,0,0,1-1.62,5,24.2,24.2,0,0,0-1.57,3.12,1.9,1.9,0,0,1-.18.57q-.13.27-.39.72c.24,2.4.53,5.87.85,10.32.09,1.35.09,3.42,0,6.34,0,.7,0,1.82-.13,3.37s-.12,2.6-.12,3.39c0,2.37.08,7.25.25,14.5.1,4.32.18,6,.23,6.68a2,2,0,0,1,.11,1.16c-.28,1.36-.57,3.45-.85,6.19a25.5,25.5,0,0,0,0,3.62c0,2.78.16,6.77.48,12,.44.78.94,1.79,1.52,3.09a9.79,9.79,0,0,0,.72.75c1,1,1.59,1.73,1.59,2.7a2.37,2.37,0,0,1-1.88,2.31,13.77,13.77,0,0,1-4.07.69,7.86,7.86,0,0,1-4.06-1,1.81,1.81,0,0,0-.66-.15,2.17,2.17,0,0,0-.87.29l-.18.08a8.54,8.54,0,0,1-2.08.62,13.14,13.14,0,0,1-2.81.29,15.89,15.89,0,0,1-4-.52l-.2-.07a2.45,2.45,0,0,1-1.8-2.31,4.25,4.25,0,0,1,.54-1.85,3.52,3.52,0,0,0,.24-.59,5,5,0,0,1,2.07-3.12,4.06,4.06,0,0,0,.75-.7l0-.07a5.14,5.14,0,0,0-.15-.53,5.72,5.72,0,0,1-.48-3,4,4,0,0,1,1.42-2.2h0a4.74,4.74,0,0,1-1.2-2.75,38.35,38.35,0,0,1,.2-5.58c.32-3,.42-4.31.43-4.89s-.24-1.54-.36-2.59a2,2,0,0,1,.27-1.27,8.27,8.27,0,0,0,.46-1,3.24,3.24,0,0,0,.15-.43c-.33-1.59-.89-4-1.66-7.13a1.92,1.92,0,0,1-.05-.63,15.1,15.1,0,0,0-.38-3.73,4.35,4.35,0,0,0-.53-.4,9.31,9.31,0,0,1-2.05-1.31c-.54-.42-1.27-1.05-2.21-1.91a1.89,1.89,0,0,1-.46-.62,29.07,29.07,0,0,0-1.68-2.89c-.24-.2-.89-.7-2.6-1.89a23.09,23.09,0,0,1-3.79-2.28,2,2,0,0,1-.84-1.48,5.62,5.62,0,0,0-.28-1.15c-.89-.56-2-1.35-3.41-2.4a1.86,1.86,0,0,1-.65-.84,12.34,12.34,0,0,0-1-1.79c0,.51.05,1,.11,1.6v.11c.13,2.91.22,7.29.26,13a13.83,13.83,0,0,1-.36,2.64,8.58,8.58,0,0,0-.18,1.52c.19.42.41.94.66,1.57a2.16,2.16,0,0,1,.13.83c-.08,1.65-.17,4.17-.25,7.47q.12,3.06.38,11.33c.17,4.81.23,8.67.19,11.47a4.34,4.34,0,0,1-.76,2.17,5.45,5.45,0,0,0,.66.67,6,6,0,0,1,2,2.68,4.18,4.18,0,0,0,.7,1,4.49,4.49,0,0,1,1.34,2.72c0,2.7-3.51,2.7-5.61,2.7-.94,0-2.56-.08-4.95-.26-1.61-.13-2.8-.2-3.55-.2h-.15a7.92,7.92,0,0,0-.79.41A4.43,4.43,0,0,1,225.32,122.05Z"/><path class="cls-2" d="M234.52,33.79a1.4,1.4,0,0,1,1,.36,9.35,9.35,0,0,1,1.39,3.1c.55,1.81.91,2.93,1.08,3.35a15.25,15.25,0,0,0,2,3.16,52,52,0,0,0,4.36,3.92A12.21,12.21,0,0,1,246.49,49a15.47,15.47,0,0,0,1.58,3.16,16.93,16.93,0,0,1,3.41,1.64,11.78,11.78,0,0,0,.82,2q.13.19,3.36,3.16l1.51,1.68a2.57,2.57,0,0,0,1.65,1,3.42,3.42,0,0,0,.44,0c1,0,1.65-.65,2-1.94.21-.46,0-2-.5-4.74a31.92,31.92,0,0,1-1.21-4.3,84.33,84.33,0,0,0,.57-8.47c-.25-.59-.61-1.47-1.07-2.65a18.38,18.38,0,0,0-.89-1.84,3.66,3.66,0,0,1-.75-1.7c0-.93.69-1.39,2.08-1.39a15.88,15.88,0,0,1,2.06.25,13.48,13.48,0,0,0,2,.2h.36c1.32-.11,2.32-.16,3-.16a4.8,4.8,0,0,1,.91.06,2.5,2.5,0,0,0,.61.06,15.55,15.55,0,0,0,2.17-.21,23.61,23.61,0,0,1,3-.57c.67,0,1,.38,1,1.13a9.82,9.82,0,0,1-1.39,4,17.39,17.39,0,0,0-1.77,3.73c-.09.17-.21.4-.38.7a1.49,1.49,0,0,0-.25.69q.38,3.6.88,10.68c.09,1.27.09,3.31,0,6.14,0,.71,0,1.82-.12,3.31s-.13,2.67-.13,3.51q0,3.6.25,14.54a64.84,64.84,0,0,0,.34,7.48s0,0,0-.08c-.29,1.43-.59,3.56-.88,6.38a27.26,27.26,0,0,0,0,3.92q0,4.25.5,12.46a30.11,30.11,0,0,1,1.71,3.41,5.54,5.54,0,0,0,1.1,1.26c.66.64,1,1.06,1,1.27s-.12.34-.37.38a12.19,12.19,0,0,1-3.57.62,5.89,5.89,0,0,1-3.14-.81,3.62,3.62,0,0,0-1.58-.38,4.2,4.2,0,0,0-1.77.5,7,7,0,0,1-1.64.51,11.81,11.81,0,0,1-2.53.27,13.69,13.69,0,0,1-3.47-.46c-.34-.13-.51-.27-.51-.44a3,3,0,0,1,.35-1,4.44,4.44,0,0,0,.41-1.17A3,3,0,0,1,259,115a4,4,0,0,0,1.39-1.59,2.4,2.4,0,0,0-.13-2,4.13,4.13,0,0,1-.38-2c0-.29.34-.67.89-1.14s.82-.84.82-1.13a2.34,2.34,0,0,0-.7-1.52,2.84,2.84,0,0,1-.76-1.58,36,36,0,0,1,.19-5.31q.45-4.11.45-5.25c-.13-.67-.26-1.56-.38-2.65.12-.21.32-.66.6-1.33a2.51,2.51,0,0,0,.28-1.45c-.34-1.61-.9-4-1.71-7.34a17.94,17.94,0,0,0-.5-4.74,4.15,4.15,0,0,0-1.39-1.26A8.08,8.08,0,0,1,256,73.66c-.5-.38-1.24-1-2.21-1.89a31.29,31.29,0,0,0-2-3.35,35.88,35.88,0,0,0-3.16-2.34,20.34,20.34,0,0,1-3.6-2.15,9.73,9.73,0,0,0-.64-2.34,41.53,41.53,0,0,1-3.85-2.66,17.91,17.91,0,0,0-1.71-2.9c-1-.85-1.66-1.27-2.09-1.27a.61.61,0,0,0-.44.19,3.68,3.68,0,0,0-.63,2.28,24.19,24.19,0,0,0,.13,2.46q.18,4.37.25,13a14.24,14.24,0,0,1-.32,2.25,7.79,7.79,0,0,0-.19,2.43c.21.42.47,1,.76,1.77-.08,1.68-.17,4.21-.25,7.58q.12,3,.38,11.38.26,7.22.19,11.38a2.85,2.85,0,0,1-.51,1.23c-.34.57-.44,1-.31,1.3a4.13,4.13,0,0,0,1.39,1.83,4.59,4.59,0,0,1,1.39,1.74,5.36,5.36,0,0,0,1.07,1.74,3.45,3.45,0,0,1,.89,1.45c0,.47-1.2.7-3.61.7-.88,0-2.48-.08-4.8-.25-1.65-.14-2.89-.2-3.7-.2h-.54a7.35,7.35,0,0,0-1.39.66,2.45,2.45,0,0,1-1.19.4,1,1,0,0,1-.32,0,18.73,18.73,0,0,0-2-.54c-.71-.15-1.07-.45-1.07-.91a6.5,6.5,0,0,1,1.33-3,18.86,18.86,0,0,0,1.64-3,33.29,33.29,0,0,0,1.39-6.2,33,33,0,0,0-.32-7.83,8.22,8.22,0,0,0-.6-1.39,3.77,3.77,0,0,1-.47-1.46,15.43,15.43,0,0,1,.44-3.16q.51-2.28.63-3a31.34,31.34,0,0,0,.32-4.55,28.7,28.7,0,0,0-.19-2.91c-.08-1.6-.13-2.59-.13-3q0-2.66-.31-7.9c0-.13-.24-.25-.6-.35s-.54-.24-.54-.41a1.42,1.42,0,0,1,.7-1,2,2,0,0,0,.75-.76,17,17,0,0,0-.19-3.79c-.25-1.94-.37-3.2-.37-3.79a35.37,35.37,0,0,0,.25-4.87c0-.17-.29-.33-.73-.48s-.66-.34-.66-.6a12.85,12.85,0,0,1,1-3.6,12.7,12.7,0,0,0,1-3.73,4.65,4.65,0,0,0-.63-2.18c-.42-.78-.8-1.53-1.14-2.24a7.72,7.72,0,0,0-.82-1.77,14.88,14.88,0,0,0-2.21-1.9c-.09,0-1-.63-2.66-1.77a5.19,5.19,0,0,1-2.15-2.15A1.05,1.05,0,0,1,217,34.6a2,2,0,0,1,1.28-.39h.23c1.31.08,2.55.12,3.73.12a36.44,36.44,0,0,0,6.33-.5h.29a28.85,28.85,0,0,1,3.31.32,13.92,13.92,0,0,0,1.83-.31,2.74,2.74,0,0,1,.55-.05M272.09,90.1h0M234.52,29.79a6.64,6.64,0,0,0-1.24.11l-.12,0-1,.2a26.66,26.66,0,0,0-3.33-.29l-.58,0-.43,0a32.09,32.09,0,0,1-5.61.44c-1.08,0-2.25,0-3.47-.12h-.49a6,6,0,0,0-3.74,1.23,5,5,0,0,0-1.68,5.6c0,.11.08.23.12.34a8.8,8.8,0,0,0,3.66,4l2.55,1.7c.7.54,1.08.86,1.28,1s.19.41.2.42a3.66,3.66,0,0,0,.23.63c.37.78.78,1.6,1.24,2.44a1.92,1.92,0,0,1,.13.28,11.57,11.57,0,0,1-.71,2.26A16.21,16.21,0,0,0,220.24,55v.21a4.45,4.45,0,0,0,1.35,3.19,18.82,18.82,0,0,1-.16,2.12,3.39,3.39,0,0,0-.05.64,34.5,34.5,0,0,0,.41,4.31c.08.62.13,1.13.16,1.55a5.12,5.12,0,0,0-1.43,2.93,4.19,4.19,0,0,0,0,.5,4.34,4.34,0,0,0,1.26,3c.13,2.42.19,4.32.19,5.65,0,.31,0,1,.14,3.18a1.34,1.34,0,0,0,0,.2c.14,1.35.17,2.1.17,2.5a28.37,28.37,0,0,1-.26,3.9c-.06.32-.22,1.06-.59,2.75a18.76,18.76,0,0,0-.54,4,7.08,7.08,0,0,0,.9,3.24c.13.28.22.47.27.59a29.16,29.16,0,0,1,.24,6.51,28.27,28.27,0,0,1-1.2,5.25c-.08.17-.37.73-1.23,2.11a9.61,9.61,0,0,0-1.95,5.19,4.94,4.94,0,0,0,4.27,4.83,12.63,12.63,0,0,1,1.56.41,5,5,0,0,0,1.59.26,6.34,6.34,0,0,0,3.17-.92l.27-.15c.56,0,1.5.06,3.05.18,2.48.18,4.14.27,5.13.27a18.44,18.44,0,0,0,3.46-.25c3.95-.76,4.15-3.84,4.15-4.45a6.35,6.35,0,0,0-1.8-4,5.39,5.39,0,0,1-.38-.51,7.42,7.42,0,0,0-2.08-3,5.12,5.12,0,0,0,.34-1.73c0-2.84,0-6.73-.19-11.57-.17-5.41-.29-9.21-.38-11.27.08-3.25.17-5.73.25-7.35a4.21,4.21,0,0,0-.27-1.65c-.18-.46-.34-.86-.5-1.22,0-.18.06-.43.13-.77a16.33,16.33,0,0,0,.39-3c0-3.62-.07-6.7-.13-9.21l1.11.76a.28.28,0,0,1,0,.06,4,4,0,0,0,1.69,2.94,25.62,25.62,0,0,0,3.94,2.39c1.17.82,1.77,1.26,2.08,1.5a23.07,23.07,0,0,1,1.38,2.39,4.18,4.18,0,0,0,.92,1.24c.95.86,1.69,1.51,2.28,2a10.37,10.37,0,0,0,2,1.36,10.9,10.9,0,0,1,.21,2.41,3.72,3.72,0,0,0,.1,1.24c.68,2.78,1.19,5,1.53,6.51-.18.43-.26.61-.29.66a4,4,0,0,0-.51,2.46c.12,1,.23,1.8.35,2.5,0,.53-.12,1.76-.41,4.51v0a39.16,39.16,0,0,0-.2,5.86,5.68,5.68,0,0,0,.67,2.46,5.06,5.06,0,0,0-.87,2.06,6.81,6.81,0,0,0,.32,3.32,6.8,6.8,0,0,0-2.52,4l-.09.2a6.14,6.14,0,0,0-.74,2.71,4.48,4.48,0,0,0,3.1,4.19c.13,0,.26.09.4.12a17.52,17.52,0,0,0,4.48.59,15.8,15.8,0,0,0,3.15-.31,11.17,11.17,0,0,0,2.45-.73c.12,0,.24-.1.36-.15a10,10,0,0,0,4.7,1.1,16.14,16.14,0,0,0,4.59-.75,4.34,4.34,0,0,0,3.35-4.25,5.76,5.76,0,0,0-2.19-4.14l-.41-.41c-.46-1-.87-1.86-1.25-2.56-.3-4.92-.44-8.72-.44-11.29,0-.06,0-.12,0-.18a24.56,24.56,0,0,1,0-3.3c.27-2.6.54-4.57.8-5.87a4.26,4.26,0,0,0,.11-1,4.09,4.09,0,0,0-.17-1.17c-.05-.74-.12-2.44-.21-6.32-.17-7.23-.25-12.09-.25-14.45,0-.76,0-1.87.12-3.28s.13-2.69.13-3.48c.09-2.95.09-5.07,0-6.46-.29-4.12-.56-7.39-.79-9.78l.13-.24a4.28,4.28,0,0,0,.32-.91c.1-.24.42-.95,1.37-2.68a.25.25,0,0,0,0-.07,13.17,13.17,0,0,0,1.85-5.91,4.91,4.91,0,0,0-5-5.13,16.92,16.92,0,0,0-3.71.63c-.82.12-1.23.14-1.39.15a8.52,8.52,0,0,0-1.56-.12c-.8,0-1.89.06-3.33.17h0a8.46,8.46,0,0,1-1.37-.15,16.18,16.18,0,0,0-2.7-.3c-4.18,0-6.08,2.79-6.08,5.39a6.8,6.8,0,0,0,1.3,3.73c.4.78.54,1.08.58,1.16a.49.49,0,0,0,0,.11c.3.76.55,1.4.77,1.93-.12,3.23-.29,5.65-.51,7.18a4.24,4.24,0,0,0,.06,1.42q.32,1.42.63,2.55l-.68-.64a5,5,0,0,1-.28-.67,4.07,4.07,0,0,0-1.83-2.39A27.86,27.86,0,0,0,250.83,49a7,7,0,0,1-.53-1.15,4,4,0,0,0-1.41-2,19.68,19.68,0,0,0-2.26-1.49,43.84,43.84,0,0,1-3.55-3.16A11,11,0,0,1,241.69,39c-.1-.27-.34-1-.92-2.9a12.76,12.76,0,0,0-2.09-4.44c-.1-.11-.19-.22-.3-.33a5.39,5.39,0,0,0-3.86-1.53Z"/><path class="cls-1" d="M295.42,123a16.25,16.25,0,0,1-3.25-.39l-.14,0c-1.91-.54-2.83-.78-3.28-.89-.79,0-2.3-.08-4.49-.11l-.29,0a6.62,6.62,0,0,0-.72.19,7.88,7.88,0,0,1-2.25.47,2.68,2.68,0,0,1-2.81-2.43,7,7,0,0,1,1.42-4.75l2.21-3.28a2,2,0,0,1,.71-.64,7.14,7.14,0,0,0,1.32-1,2.74,2.74,0,0,1-.15-2.48l.06-.11a35.49,35.49,0,0,0,2.08-4.59,1.3,1.3,0,0,1,.08-.17c.15-.3.39-.8.71-1.48a16.92,16.92,0,0,1,1.25-3A1.4,1.4,0,0,1,288,98a3.61,3.61,0,0,0,.07-.59c.06-1.16.11-1.59.14-1.82a1.9,1.9,0,0,1,.18-.57c.65-1.4,1.52-3.58,2.58-6.49,0-1.08,0-2.56.2-4.51a2.05,2.05,0,0,1,.58-1.26,8.62,8.62,0,0,0,1.29-1.83c.32-1.44.85-3.38,1.62-5.93a2,2,0,0,1,.57-.9c.17-1.37.45-3.07.84-5.15a1.73,1.73,0,0,1,.14-.44A7.15,7.15,0,0,1,298,66.26a3.41,3.41,0,0,0,.82-.94A1.55,1.55,0,0,1,299,65c.2-.36.82-1.76,2.11-6.92.14-1,.41-2.48.83-4.46a.65.65,0,0,1,0-.13,19.22,19.22,0,0,1,1.75-3.93A14.74,14.74,0,0,0,305,46.91c.09-.28.34-1.32,1.3-6.31l1-4.24a1,1,0,0,1,.05-.16A28.22,28.22,0,0,1,309,32.13a14,14,0,0,1,2.68-3.93,2.22,2.22,0,0,1,.44-.37,2.77,2.77,0,0,1,1.45-.41c1.21,0,2.23.76,3,2.27a2,2,0,0,1,.08,1.66,1.6,1.6,0,0,0-.08.34c.43.57.95,1.3,1.57,2.21A2,2,0,0,1,318.2,36a.31.31,0,0,0,0,.07c.35.86.77,2,1.25,3.41a2.25,2.25,0,0,1,.09.35,32.21,32.21,0,0,0,.71,3.15c.51.92,1.24,2.23,2.21,3.94a2,2,0,0,1,.26.86,15.41,15.41,0,0,0,.38,2.31L325,56a2.17,2.17,0,0,1,.1.62,15.08,15.08,0,0,0,.38,2.82,59.14,59.14,0,0,1,3,5.46,2.48,2.48,0,0,1,.15.41c.33,1.32.9,3.33,1.68,6,.46,1.66,1.07,3.59,1.84,5.77l1.5,3.42a2,2,0,0,1,.14.53c.12.86.36,2,.72,3.52.33,1.27.7,2.63,1.11,4a2,2,0,0,1,.06.23,24.19,24.19,0,0,0,.94,3.39c.27.49.69,1.19,1.25,2.08a.8.8,0,0,1,.08.16,103.15,103.15,0,0,1,5.18,13.49s0,.09,0,.14c.24,1,.67,2.47,1.27,4.49.08.17.43.86,1.84,3.37l.8.9a4.11,4.11,0,0,1,1.33,2.66c0,.76-.32,2.58-3.26,3-.82.1-1.6.16-2.4.21l-.43,0a5.58,5.58,0,0,1-1.27-.16l-.44-.1-.34.07a6.16,6.16,0,0,1-1.38.17,2,2,0,0,1-1.33-.5l0,0a2.08,2.08,0,0,1-1,.28,6.34,6.34,0,0,1-2.46-.6,5.85,5.85,0,0,0-.79-.29,1.43,1.43,0,0,1-.29,0,5.16,5.16,0,0,0-.7.14,8.83,8.83,0,0,1-2,.34c-.52,0-3.14-.19-3.14-3.9a15,15,0,0,1,.67-3.69,13.21,13.21,0,0,0,.47-2.54c-.33-.83-.76-2-1.27-3.4a2.21,2.21,0,0,1-.11-.46,26.5,26.5,0,0,0-1.76-6c-.23-.35-.53-.7-.83-.7h-.14a4.51,4.51,0,0,0-1.17,1.16l-.07.08a28.07,28.07,0,0,1-2.21,2.33,1.9,1.9,0,0,1-.63.37,23.41,23.41,0,0,0-3.31,1.68c-.5.5-1.18,1.16-2.06,2-1.31,1.24-1.66,1.56-2.52,1.56a1.93,1.93,0,0,1-1.14-.36,6.69,6.69,0,0,1-1.89-2.26,4,4,0,0,0-.58-.84c-1.17-.59-2.87-1.48-5.17-2.71A2.24,2.24,0,0,1,303,104c-.4-.38-1-.85-1.67-1.42a3.73,3.73,0,0,1-.16.35,2.36,2.36,0,0,1,.16,1.92,13,13,0,0,1-2.08,3.38,5.68,5.68,0,0,0-1.25,2.1,9,9,0,0,0,.52,3.6,20.58,20.58,0,0,1,1,5,3.67,3.67,0,0,1-3.19,4C296,123,295.71,123,295.42,123Zm21-35.35c.64.43,1.65,1.15,3,2.11l.13.1q.78.66,2.16,1.71c-.13-.46-.28-1-.45-1.48a3.2,3.2,0,0,1-2-1.11,2.09,2.09,0,0,1-.26-.46,5.21,5.21,0,0,1-.26-2.58l.12-1.58v-.25a23.06,23.06,0,0,1-1.94-2.91,1.63,1.63,0,0,1-.21-.53c-.5-2-1.33-5.06-2.47-9.07-.33-.71-.74-1.68-1.24-3a.2.2,0,0,1,0-.08q-.07.52-.18,1.11a2,2,0,0,1-.56,1.06c-.12.12-.26.26-.44.42a4.65,4.65,0,0,1-.08.61c0,.11-.05.22-.08.33-.72,2-1.73,4.91-3,8.74-.4,1.16-.93,2.76-1.56,4.78a34,34,0,0,1-.66,4.28,1.24,1.24,0,0,1-.05.19c1.14-.67,2.65-1.54,4.5-2.6l.43-.52a3.35,3.35,0,0,1,2.65-1.5,2.65,2.65,0,0,1,2.46,2C316.37,87.51,316.39,87.57,316.41,87.63Z"/><path class="cls-2" d="M313.52,29.42c.41,0,.83.39,1.24,1.19a4.68,4.68,0,0,0-.25,1.71c.46.59,1.12,1.5,2,2.72a3.55,3.55,0,0,0-.38,1.26c.38.85.86,2.13,1.45,3.86a36.12,36.12,0,0,0,.82,3.6q.76,1.4,2.34,4.17a18.87,18.87,0,0,0,.45,2.72l2,5.94a18.1,18.1,0,0,0,.5,3.61,53.25,53.25,0,0,1,3.1,5.56c.34,1.35.9,3.37,1.71,6.07q.69,2.53,1.89,5.94c.34.76.84,1.92,1.52,3.48.13.93.38,2.17.76,3.73q.5,2,1.14,4.11a25.29,25.29,0,0,0,1.07,3.85c.3.55.76,1.33,1.39,2.34a103.56,103.56,0,0,1,5.06,13.21c.25,1,.69,2.57,1.33,4.68.12.34.82,1.62,2.08,3.86l.95,1.07a2.51,2.51,0,0,1,.82,1.33c0,.55-.52.91-1.58,1.07-.71.09-1.47.15-2.27.19a1,1,0,0,1-.24,0,4,4,0,0,1-.81-.11,4.53,4.53,0,0,0-.85-.16,4,4,0,0,0-.82.13,4.8,4.8,0,0,1-.95.12,8.68,8.68,0,0,0-1.9-1.13.11.11,0,0,0-.07,0c-.09,0-.16.14-.21.41s-.14.5-.22.5a4.73,4.73,0,0,1-1.68-.44,4.38,4.38,0,0,0-1.48-.44.9.9,0,0,0-.31,0,5.66,5.66,0,0,0-1.24.19,9.06,9.06,0,0,1-1.49.29c-.76,0-1.14-.63-1.14-1.9a15.32,15.32,0,0,1,.6-3.19,12.19,12.19,0,0,0,.54-3.44c-.34-.81-.8-2-1.39-3.67a28.7,28.7,0,0,0-2-6.7,2.84,2.84,0,0,0-3.35-1.71,5.27,5.27,0,0,0-2.15,1.83,28.65,28.65,0,0,1-2,2.15,25.86,25.86,0,0,0-3.86,2c-.5.51-1.24,1.23-2.21,2.15a10.36,10.36,0,0,1-1.14,1,4.84,4.84,0,0,1-1.29-1.61,4.77,4.77,0,0,0-1.24-1.55c-1.18-.59-2.95-1.51-5.31-2.78q-1.06-1-3.41-2.78a1.24,1.24,0,0,0-.68-.25.67.67,0,0,0-.52.25,11.5,11.5,0,0,1-.32,2.15c0,.13-.2.28-.47.47s-.41.33-.41.41.17.45.5.7.47.48.38.7a11.13,11.13,0,0,1-1.77,2.81,7.54,7.54,0,0,0-1.64,3,11,11,0,0,0,.57,4.49,19.49,19.49,0,0,1,.88,4.42c0,1.23-.48,1.9-1.45,2q-.3,0-.63,0a14.61,14.61,0,0,1-2.85-.35c-1.81-.5-3-.82-3.54-.95q-1.14-.06-4.74-.12a1,1,0,0,0-.27,0,5.06,5.06,0,0,0-1.37.29,6.88,6.88,0,0,1-1.65.38c-.5,0-.78-.21-.82-.63a5,5,0,0,1,1.08-3.42c.76-1.13,1.49-2.23,2.21-3.28a11.5,11.5,0,0,0,2.65-2.22,1.51,1.51,0,0,0-.31-1.13c-.3-.51-.4-.85-.32-1a38.78,38.78,0,0,0,2.22-4.86l.82-1.71a13.12,13.12,0,0,1,1.13-2.78,2.78,2.78,0,0,0,.45-1.65c0-.8.08-1.34.12-1.64q1.08-2.28,2.79-7a42.06,42.06,0,0,1,.18-4.67A11.52,11.52,0,0,0,295,81.63c.3-1.39.85-3.42,1.65-6.07a1.07,1.07,0,0,0,.25,0,1,1,0,0,0,.25,0c.13-1.48.45-3.56.95-6.26a5.86,5.86,0,0,1,1.33-1.58A4.94,4.94,0,0,0,300.73,66a40.62,40.62,0,0,0,2.34-7.52c.12-1,.4-2.44.82-4.42a17.86,17.86,0,0,1,1.58-3.51,17,17,0,0,0,1.45-3.13q.25-.82,1.33-6.45l.95-4.17A27.72,27.72,0,0,1,310.78,33a11.94,11.94,0,0,1,2.34-3.41.75.75,0,0,1,.4-.12m-10.2,64.22a17.24,17.24,0,0,0,2.91-1.2c1.18-.72,3.09-1.84,5.75-3.35a6.27,6.27,0,0,0,.82-.92c.38-.48.74-.73,1.08-.73s.41.25.6.73a2.43,2.43,0,0,0,.53.92c.68.46,1.75,1.22,3.23,2.27q1.26,1.08,4,3.1a1.73,1.73,0,0,0,.95.28,2.37,2.37,0,0,0,1.07-.28c.13,0,.13-.34,0-.88a43.94,43.94,0,0,0-1.39-5.06,1.59,1.59,0,0,0-1-.38,1.68,1.68,0,0,1-1-.38,3.37,3.37,0,0,1-.13-1.64l.13-1.71V83.33a16.29,16.29,0,0,1-2.21-3.16q-.76-3.09-2.53-9.29c-.34-.72-.78-1.77-1.33-3.16a16.75,16.75,0,0,1-.57-2.72,2.54,2.54,0,0,0-1.07-2,1,1,0,0,0-.38-.09c-.36,0-.63.29-.82.88-.26.78-.51,1.51-.76,2.18a20.83,20.83,0,0,1-.38,3.29c-.21.21-.57.53-1.08,1a2.41,2.41,0,0,1,0,1.14q-1.06,3-3,8.78c-.42,1.23-1,2.91-1.64,5.06a30.88,30.88,0,0,1-.64,4.24,10.58,10.58,0,0,1-1.13,2,2.35,2.35,0,0,0-.45,2c.05.16.21.25.51.25m10.2-68.22h0a4.73,4.73,0,0,0-2.5.71,4.07,4.07,0,0,0-.87.73,15.84,15.84,0,0,0-3,4.45,31.88,31.88,0,0,0-1.74,4.27c0,.11-.07.23-.09.34l-.39,1.71-.56,2.46,0,.14c-.93,4.88-1.17,5.86-1.23,6l0,.13a16,16,0,0,1-1.1,2.23A21.88,21.88,0,0,0,300,53a2.44,2.44,0,0,0-.06.26c-.42,2-.7,3.43-.85,4.5-1.25,5-1.79,6.14-1.89,6.32l-.16.32a4.35,4.35,0,0,1-.42.44,9,9,0,0,0-2.24,2.87,3.92,3.92,0,0,0-.28.88c-.34,1.82-.6,3.37-.77,4.67a4,4,0,0,0-.58,1.17c-.73,2.42-1.25,4.32-1.59,5.76a6.69,6.69,0,0,1-.82,1.17,3.92,3.92,0,0,0-1.16,2.51c-.15,1.8-.22,3.22-.22,4.33-1,2.68-1.78,4.69-2.38,6a4.14,4.14,0,0,0-.35,1.15c0,.28-.09.77-.16,2v0l0,0a18.71,18.71,0,0,0-1.34,3.2l-.62,1.29a2.52,2.52,0,0,0-.15.33,34.85,34.85,0,0,1-2,4.33,2,2,0,0,0-.12.21,4.24,4.24,0,0,0-.38,2.65,3.91,3.91,0,0,0-1.37,1.25c-.72,1-1.46,2.15-2.22,3.29a8.86,8.86,0,0,0-1.73,6.1,4.64,4.64,0,0,0,4.79,4.19,9.17,9.17,0,0,0,2.85-.57l.25-.07h.12c2.37,0,3.6.07,4.24.1l3,.82.27.07a17.92,17.92,0,0,0,3.65.43c.35,0,.69,0,1,0l.14,0c3-.39,4.93-2.74,4.93-6a22,22,0,0,0-1-5.5,9,9,0,0,1-.48-2.67,8.06,8.06,0,0,1,.86-1.28,17.91,17.91,0,0,0,2.07-3.17c1.84,1,3.29,1.74,4.39,2.3l.15.26a8.68,8.68,0,0,0,2.48,2.91,4,4,0,0,0,2.29.72c1.65,0,2.49-.79,3.88-2.09.81-.77,1.44-1.38,1.93-1.87a20,20,0,0,1,2.77-1.4,3.94,3.94,0,0,0,1.26-.75,22.64,22.64,0,0,0,1.87-1.93,17.37,17.37,0,0,1,1,3.78,4.25,4.25,0,0,0,.22.92c.44,1.23.81,2.22,1.12,3a16.94,16.94,0,0,1-.38,1.74,17.63,17.63,0,0,0-.73,4.2c0,4.05,2.67,5.9,5.14,5.9a10.42,10.42,0,0,0,2.43-.4l.21,0,.32.13a8.35,8.35,0,0,0,3.24.76,3.65,3.65,0,0,0,.79-.08,4,4,0,0,0,1.61.33,7.82,7.82,0,0,0,1.71-.2,7.24,7.24,0,0,0,1.72.22,5.68,5.68,0,0,0,.59,0c.83-.05,1.64-.11,2.39-.2l.16,0c4.71-.75,4.95-4.31,4.95-5a6,6,0,0,0-1.86-4l-.63-.72c-1.09-1.93-1.48-2.67-1.61-2.94-.57-1.9-1-3.33-1.2-4.24,0-.09-.05-.18-.08-.28a107.54,107.54,0,0,0-5.29-13.77c-.06-.1-.11-.21-.18-.31-.56-.89-.9-1.47-1.11-1.84a20.56,20.56,0,0,1-.8-2.92,3.15,3.15,0,0,0-.11-.44c-.4-1.38-.77-2.71-1.09-3.95-.34-1.41-.57-2.52-.68-3.3a3.81,3.81,0,0,0-.29-1q-1-2.22-1.47-3.36c-.74-2.12-1.33-4-1.76-5.53a.24.24,0,0,0,0-.08c-.78-2.63-1.34-4.61-1.66-5.9a4,4,0,0,0-.3-.82c-1.14-2.27-2.1-4-2.91-5.32a11.85,11.85,0,0,1-.27-2.06,4,4,0,0,0-.2-1.24q-1.21-3.69-1.9-5.76a12,12,0,0,1-.31-1.91,4,4,0,0,0-.52-1.72c-.89-1.57-1.58-2.81-2.08-3.7a26.3,26.3,0,0,1-.6-2.69,4,4,0,0,0-.17-.7c-.37-1.09-.7-2-1-2.78a4,4,0,0,0-.57-3.32q-.58-.86-1.05-1.5a4,4,0,0,0-.4-2.5c-1.52-2.92-3.65-3.35-4.79-3.35ZM309,86c.59-1.89,1.08-3.4,1.46-4.49,1-2.93,1.81-5.33,2.46-7.16.82,2.92,1.43,5.2,1.82,6.81a4.07,4.07,0,0,0,.43,1.06c.49.83.94,1.55,1.36,2.16a4.3,4.3,0,0,0-2.64-.91,5.29,5.29,0,0,0-4.23,2.27l-.15.19-.53.3a1.79,1.79,0,0,1,0-.23Z"/><path class="cls-1" d="M369.76,121.87a15,15,0,0,1-2.87-.39c-1.2-.24-1.75-.33-2-.37-1.28,0-4.08.12-8.32.32-.57,0-1.05,0-1.43,0-.78,0-2.24,0-2.82-1.36a3.67,3.67,0,0,1-.25-1.39,4.38,4.38,0,0,1,1.05-2.67l.13-.15c.46-.49.67-.75.75-.85a1.9,1.9,0,0,1,.2-.37,9.53,9.53,0,0,0,1.75-3.46s0-.08,0-.12a4,4,0,0,0-.28-1.6,11.42,11.42,0,0,1-.58-3,2,2,0,0,1,0-.35,46.71,46.71,0,0,0,.51-5.46c-.32-.78-.68-1.82-1.09-3.15a1.65,1.65,0,0,1-.07-.32,22,22,0,0,1,0-6.55,1.88,1.88,0,0,1,.35-.82A10.78,10.78,0,0,0,356,87.5a3.11,3.11,0,0,1-.9-2,1.7,1.7,0,0,1,0-.22c.12-1.08.2-2.65.24-4.68,0-.25-.06-1.25-.43-4.68a24.31,24.31,0,0,1-.45-4.68,2,2,0,0,1,.06-.34c.24-.92.54-2.31.88-4.14.21-1.08.33-1.75.41-2.16a9,9,0,0,1-.56-1.12,2,2,0,0,1-.16-.64,96.08,96.08,0,0,1,0-10.35,3.41,3.41,0,0,1,.24-1.14v0c0-3.75-.52-4.72-.63-4.88a4.88,4.88,0,0,1-1.14-2.79v-.3l-.22-.24a15.81,15.81,0,0,0-1.7-1.15,1.91,1.91,0,0,1-.32-.24c-1.67-1.48-2.44-2.78-2.44-4.08,0-.68.28-2.33,2.82-3a7.87,7.87,0,0,1,1.87-.32,2.64,2.64,0,0,1,.73.11l.13.05a4.65,4.65,0,0,0,.69,0,9.85,9.85,0,0,0,1.45-.47,8.53,8.53,0,0,1,2.51-.73q.31,0,.66,0a12.38,12.38,0,0,1,2.77.37A22.13,22.13,0,0,0,365,34a5.45,5.45,0,0,0,.72-.1,8.85,8.85,0,0,1,1.43-.16c.76,0,1.85.05,3.34.13s2.44.13,3.1.13a9.18,9.18,0,0,0,1.83-.3,11.61,11.61,0,0,1,2.43-.35l.41,0,.31,0c1.55.39,3.85.85,6.82,1.36.66-.16,1.52-.3,2.61-.45l.26,0a5.8,5.8,0,0,1,2.7.81,1.58,1.58,0,0,0,.35.17,13.82,13.82,0,0,1,2.12-1.17,1.87,1.87,0,0,1,.74-.18l.54,0a13.34,13.34,0,0,1,2.76.31c1.63.4,2.24.53,2.47.58l2,0c2.26,0,3.25,1,3.69,1.86a6.35,6.35,0,0,1,.36,3.82,2,2,0,0,1-.75,1.31A1.35,1.35,0,0,0,405,42a10.52,10.52,0,0,0,.33,1.28,7.15,7.15,0,0,1,.32,3.46,19.62,19.62,0,0,1-3.05,6.85,1.92,1.92,0,0,1-.58.59,13.65,13.65,0,0,0-1.85,1.65,37,37,0,0,1-1.3,4.2,1.88,1.88,0,0,1-.46.73A15.22,15.22,0,0,0,397,62.55c-.19.77-.47,1.7-.85,2.83a7.2,7.2,0,0,1-1.12,2,6.59,6.59,0,0,0,0,.72,3,3,0,0,1-1.76,2.63l-.26.17q-.63,1.63-1.77,4.77a36,36,0,0,1-3.16,5.51,20.8,20.8,0,0,0-1.73,3.51,3.67,3.67,0,0,1,.58.46,1.85,1.85,0,0,1,.35.48c.39.74,1.1,1.89,2.11,3.43a83,83,0,0,0,5.67,7.37c1.1,1.07,2.58,2.69,4.54,4.94a2,2,0,0,1,.3.46,15.52,15.52,0,0,0,1.73,2.58A47.38,47.38,0,0,0,406,108c.76.45,1.84,1.16,3.3,2.16a1.69,1.69,0,0,1,.32.27c.71.75,1.83,1.78,3.33,3.06a17.58,17.58,0,0,1,2.65,1.52,2,2,0,0,1,.43.39c.13.1.46.35,1.27.87,1.07.75,2.17,1.63,2.17,2.94,0,.57-.24,2.44-3.27,2.44a12.78,12.78,0,0,1-2.47-.36,6.27,6.27,0,0,0-1.27-.18,22.51,22.51,0,0,1-4.09.4q-.74,0-1.44-.06c-1.41-.11-2.84-.24-4.28-.39a23.13,23.13,0,0,1-2.59.78,2,2,0,0,1-.48.06l-.33,0c-3.24-.54-4.12-.65-4.36-.67h-.18a3.19,3.19,0,0,1-1.82-.49,2.53,2.53,0,0,1-1.13-2.14,9.72,9.72,0,0,1,.14-2h0a9.87,9.87,0,0,0,.16-1.87,4.81,4.81,0,0,0-.67-.61,15.66,15.66,0,0,1-2-1.57,1.71,1.71,0,0,1-.21-.26c-.48-.68-1.19-1.66-2.12-3a53.92,53.92,0,0,1-4.24-4.25,2.7,2.7,0,0,1-.25-.34c-.58-1-1.53-2.57-2.82-4.68a22.72,22.72,0,0,0-2.66-3.69,7.21,7.21,0,0,1-1.26-.55,2,2,0,0,1-1-1.31,14.32,14.32,0,0,0-1.92-4,17.31,17.31,0,0,0-1.68-1.22,5.57,5.57,0,0,1-.89-.72v.06a2,2,0,0,1,0,.8,27.63,27.63,0,0,0-.56,5.28c0,.12.13.36.3.78a6.35,6.35,0,0,1,.58,2.23,2.43,2.43,0,0,1,0,.38c-.36,1.83-.73,4.84-1.13,9l0,0a3.69,3.69,0,0,1,1.12,2.39,1.72,1.72,0,0,1,0,.39,18.38,18.38,0,0,0-.21,2.86,3.83,3.83,0,0,1,1.57,2.08h0s.14.34.81,1.5l.06.11a6.08,6.08,0,0,1,.84,2.6C373.65,119.42,373.47,121.87,369.76,121.87Zm-.21-38a7.53,7.53,0,0,1,1.76-1.76,7.77,7.77,0,0,0,1.14-1c1.07-2.75,2.86-6.93,5.28-12.32l.09-.17c.9-1.58,1.76-3,2.58-4.32a2,2,0,0,1,.22-.29,19.53,19.53,0,0,0,1.8-2.46c.28-1.2.72-2.82,1.35-4.91a2,2,0,0,1,.87-1.12,7.56,7.56,0,0,0,1.44-1.37,28.35,28.35,0,0,0,1.91-4.8l-1.64-.19c-2.7-.31-3.8-.38-4.25-.38h0l-.26.16a4.19,4.19,0,0,1-2.26.8,18.18,18.18,0,0,1-3.66-.52,13.82,13.82,0,0,0-2.79-.43,3.79,3.79,0,0,0-2.24.54,2.34,2.34,0,0,0-.87,1.15c0,1.24,0,3,0,5.19,0,.52,0,1.44-.13,2.88s-.12,2.28-.12,2.91c0,2.73.08,5.23.24,7.43,0,.12.12.61.56,2.12a9.64,9.64,0,0,1,.33,3.22,10,10,0,0,1-.91,3.54,16.5,16.5,0,0,0-.81,2.29c0,.21,0,.92.25,3C369.45,83.37,369.5,83.63,369.55,83.9Z"/><path class="cls-2" d="M359.78,35.33a10.47,10.47,0,0,1,2.39.34A27.94,27.94,0,0,0,365,36a7,7,0,0,0,1.07-.13,7.11,7.11,0,0,1,1.08-.13c.71,0,1.79.05,3.22.13s2.51.13,3.22.13a11.39,11.39,0,0,0,2.28-.35,9.48,9.48,0,0,1,2-.3h.23c1.69.43,4.15.91,7.4,1.46a21.38,21.38,0,0,1,2.78-.51,3.88,3.88,0,0,1,1.74.57,3.6,3.6,0,0,0,1.7.51h.16a10.26,10.26,0,0,1,2.41-1.46h.44a10.78,10.78,0,0,1,2.34.27c1.67.4,2.6.62,2.77.63h0l2.16-.07c1,0,1.59.27,1.86.8a4.6,4.6,0,0,1,.16,2.62A4.07,4.07,0,0,0,403,41.61a8.94,8.94,0,0,0,.47,2.28,5.13,5.13,0,0,1,.28,2.46,18,18,0,0,1-2.78,6.2,18,18,0,0,0-2.59,2.34A28.19,28.19,0,0,1,397,59.38a20.13,20.13,0,0,0-1.83,2.33c-.17.76-.46,1.77-.88,3a6.06,6.06,0,0,1-.89,1.52A2.86,2.86,0,0,0,393,68.1c0,.29-.26.6-.79.92a2.53,2.53,0,0,0-1,.85c-.42,1.1-1.05,2.8-1.9,5.12a40.62,40.62,0,0,1-3,5.12A18.16,18.16,0,0,0,384,85.48c0,.17.22.36.64.57a3.48,3.48,0,0,1,.82.51c.42.8,1.16,2,2.21,3.6a83.51,83.51,0,0,0,5.88,7.65q1.57,1.51,4.49,4.87a18.64,18.64,0,0,0,2,3,45.7,45.7,0,0,0,4.81,3.92c.71.42,1.81,1.14,3.28,2.15.8.84,2.05,2,3.73,3.41a13.9,13.9,0,0,1,2.59,1.46,8.32,8.32,0,0,0,1.71,1.26c.84.59,1.27,1,1.27,1.27s-.43.44-1.27.44a12,12,0,0,1-2.05-.32,8.56,8.56,0,0,0-1.69-.22,2.63,2.63,0,0,0-.43,0,19.25,19.25,0,0,1-3.66.37c-.43,0-.86,0-1.27,0-1.56-.13-3.14-.27-4.74-.44a18.53,18.53,0,0,1-2.78.88q-4.25-.69-4.68-.69h-.18q-1,0-1-.63a10.89,10.89,0,0,1,.05-1.66,0,0,0,0,1,0,0A12.19,12.19,0,0,0,394,114a5.13,5.13,0,0,0-1.45-1.58,14.57,14.57,0,0,1-1.77-1.39l-2.28-3.16a48.2,48.2,0,0,1-4.23-4.23c-.59-1-1.54-2.58-2.85-4.71a21.14,21.14,0,0,0-3.35-4.46,3.94,3.94,0,0,1-1.32-.51,17.27,17.27,0,0,0-2.34-4.86,18.84,18.84,0,0,0-2.12-1.58,2.61,2.61,0,0,1-1.3-1.9c0-.51.5-1.13,1.49-1.86a5.92,5.92,0,0,0,1.74-1.68q1.63-4.23,5.31-12.39,1.32-2.34,2.53-4.24a25.24,25.24,0,0,0,2.21-3q.38-1.77,1.39-5.12a9.72,9.72,0,0,0,2-1.9A31.41,31.41,0,0,0,390,49.77c.33-1.14.42-1.79.25-2a19.9,19.9,0,0,0-3.67-.57q-3.37-.39-4.47-.39h-.27a2.38,2.38,0,0,0-1.1.47,2.39,2.39,0,0,1-1.17.48,16.4,16.4,0,0,1-3.23-.48,16.92,16.92,0,0,0-3.22-.47,5.68,5.68,0,0,0-3.42.92,4.45,4.45,0,0,0-1.7,2.49c0,1.23,0,3,0,5.44,0,.51,0,1.43-.13,2.78s-.12,2.36-.12,3q0,4.23.25,7.64a22,22,0,0,0,.63,2.47,7.18,7.18,0,0,1,.25,2.53,8.19,8.19,0,0,1-.76,2.91,16.31,16.31,0,0,0-.94,2.78,25.65,25.65,0,0,0,.25,3.6q.38,1.71.95,5.37a29.05,29.05,0,0,0-.63,6,5.67,5.67,0,0,0,.44,1.36,5.27,5.27,0,0,1,.44,1.48c-.38,2-.78,5.21-1.2,9.67a1.88,1.88,0,0,0,.6,1,1.86,1.86,0,0,1,.6,1,22.3,22.3,0,0,0-.25,4c0,.21.3.5.79.85a2.09,2.09,0,0,1,.85,1,11.84,11.84,0,0,0,1,2,5,5,0,0,1,.63,1.7c0,.64-.63,1-1.89,1a13.39,13.39,0,0,1-2.47-.35c-1.14-.23-1.89-.36-2.27-.41-1.27,0-4.11.11-8.54.32-.53,0-1,0-1.33,0-.61,0-.93,0-1-.14a1.46,1.46,0,0,1-.1-.61,2.52,2.52,0,0,1,.63-1.45,5.17,5.17,0,0,0,1.14-1.45,11.57,11.57,0,0,0,2.09-4.3,5.73,5.73,0,0,0-.32-2.59,9.8,9.8,0,0,1-.5-2.41,50,50,0,0,0,.56-6.19,29.75,29.75,0,0,1-1.2-3.35,20.27,20.27,0,0,1,0-5.94,15,15,0,0,0,1.71-3.67c0-.25-.13-.59-.51-1s-.56-.72-.56-.89c.12-1.13.21-2.76.25-4.86,0-.59-.15-2.24-.44-4.93a30.21,30.21,0,0,1-.45-4.3c.26-1,.56-2.39.92-4.27s.54-2.88.54-3a5.74,5.74,0,0,1-.82-1.46,97,97,0,0,1,0-10.11,1.78,1.78,0,0,1,.12-.54,1.58,1.58,0,0,0,.13-.54c0-3.11-.32-5.16-.95-6.13a3.51,3.51,0,0,1-.82-1.7v-.32l.06-.32c0-.29-.31-.76-1-1.39a17.16,17.16,0,0,0-2-1.39c-1.18-1-1.77-1.92-1.77-2.59,0-.46.43-.8,1.3-1a7.39,7.39,0,0,1,1.39-.26h.09a3.85,3.85,0,0,0,1.46.19,7.14,7.14,0,0,0,2.18-.61,8.14,8.14,0,0,1,1.92-.6l.52,0m0-4q-.42,0-.81,0a10.51,10.51,0,0,0-3.08.87c-.51.19-.81.28-.95.32h0a4.24,4.24,0,0,0-1.29-.19,10,10,0,0,0-2.34.37c-3.21.78-4.35,3.05-4.35,4.9,0,2.51,1.77,4.39,3.11,5.58a4.07,4.07,0,0,0,.63.46,11,11,0,0,1,1,.64A7.39,7.39,0,0,0,353,47.45a12.9,12.9,0,0,1,.36,3.54,5.14,5.14,0,0,0-.25,1.45,99.17,99.17,0,0,0,0,10.54,3.88,3.88,0,0,0,.32,1.29l.3.64-.28,1.46c-.34,1.78-.63,3.13-.86,4a3.9,3.9,0,0,0-.11.67,23.94,23.94,0,0,0,.46,5.14c.36,3.36.4,4.22.41,4.4,0,2-.12,3.45-.23,4.45a3.31,3.31,0,0,0,0,.44,4.48,4.48,0,0,0,.63,2.28,5.7,5.7,0,0,1-.51.94,4.21,4.21,0,0,0-.7,1.66,23.92,23.92,0,0,0,0,7.14,3.11,3.11,0,0,0,.14.66c.35,1.16.68,2.12,1,2.89a39.56,39.56,0,0,1-.46,4.77,4.17,4.17,0,0,0-.06.71,12.65,12.65,0,0,0,.67,3.54,4.68,4.68,0,0,1,.19.85,8,8,0,0,1-1.42,2.63,3.91,3.91,0,0,0-.26.44c-.09.1-.24.28-.5.54l-.26.31a6.35,6.35,0,0,0-1.46,3.89,5.47,5.47,0,0,0,.42,2.18c1.1,2.57,3.77,2.57,4.65,2.57.43,0,.94,0,1.56-.06,4-.19,6.73-.29,8.05-.3.23,0,.73.12,1.73.32a16.68,16.68,0,0,0,3.27.43c4.65,0,5.89-3.11,5.89-5a7.64,7.64,0,0,0-1-3.49l-.12-.23c-.43-.73-.6-1.08-.66-1.2a5.52,5.52,0,0,0-1.42-2.27,12.53,12.53,0,0,1,.14-1.57,4,4,0,0,0,.08-.78,5.21,5.21,0,0,0-1.09-3.07c.36-3.62.7-6.29,1-7.94a3.74,3.74,0,0,0,.07-.75,7.71,7.71,0,0,0-.73-3c-.06-.14-.1-.26-.13-.35,0-.66.06-1.24.1-1.75a9.42,9.42,0,0,1,1,2.31,4,4,0,0,0,2,2.62,11,11,0,0,0,1.06.5,25.28,25.28,0,0,1,2.1,3c1.29,2.09,2.23,3.65,2.8,4.63a3.85,3.85,0,0,0,.51.69,56.86,56.86,0,0,0,4.22,4.26c.86,1.19,1.52,2.1,2,2.74a3.67,3.67,0,0,0,.44.52,16.29,16.29,0,0,0,2,1.65,4.5,4.5,0,0,1-.08.58h0a5.92,5.92,0,0,0-.13,1.09c0,.31,0,.77,0,1.38a4.64,4.64,0,0,0,5,4.63h.08c.31,0,1.27.17,4.13.64a3.49,3.49,0,0,0,.65.05,4,4,0,0,0,1-.12c.89-.22,1.67-.45,2.35-.69,1.3.14,2.6.25,3.87.36.52,0,1.06.06,1.6.06a23.75,23.75,0,0,0,4.18-.39,5.77,5.77,0,0,1,.76.13,14.55,14.55,0,0,0,2.89.4c4.16,0,5.27-2.79,5.27-4.44,0-2.46-2-3.87-3-4.54l-.1-.07c-.56-.37-.86-.58-1-.69a3.62,3.62,0,0,0-.67-.56,21.71,21.71,0,0,0-2.68-1.57c-1.33-1.14-2.33-2.06-3-2.72a3.38,3.38,0,0,0-.64-.55c-1.43-1-2.52-1.7-3.31-2.17a48.42,48.42,0,0,1-4-3.23,13.51,13.51,0,0,1-1.42-2.1,3.84,3.84,0,0,0-.6-.92c-2-2.26-3.46-3.89-4.6-5A81.67,81.67,0,0,1,391,87.93c-1.2-1.83-1.75-2.77-2-3.23a4.39,4.39,0,0,0-.32-.51,22,22,0,0,1,1.07-2,36.73,36.73,0,0,0,3.29-5.77l0-.08c.63-1.72,1.14-3.1,1.53-4.13A4.92,4.92,0,0,0,397,68.1v0a8.56,8.56,0,0,0,1-2,.49.49,0,0,0,0-.11c.33-1,.6-1.86.79-2.59a14.12,14.12,0,0,1,1-1.22,3.9,3.9,0,0,0,.94-1.46c.55-1.53,1-2.8,1.22-3.86a9.39,9.39,0,0,1,1.15-1,4.08,4.08,0,0,0,1.16-1.18,21.85,21.85,0,0,0,3.33-7.59,9,9,0,0,0-.38-4.37c0-.06,0-.11-.05-.16a3.88,3.88,0,0,0,.78-1.87,8.18,8.18,0,0,0-.57-5A5.65,5.65,0,0,0,402,32.74h-.11l-1.74,0c-.31-.06-.92-.2-2.14-.5l-.09,0a14.86,14.86,0,0,0-3.19-.36l-.63,0a3.75,3.75,0,0,0-1.48.36c-.5.23-1,.46-1.4.71a7,7,0,0,0-2.94-.7,3.15,3.15,0,0,0-.53,0c-1,.13-1.74.25-2.38.39-2.74-.47-4.86-.9-6.3-1.26a4.09,4.09,0,0,0-.61-.1,5.41,5.41,0,0,0-.59,0,13,13,0,0,0-2.87.4,9.44,9.44,0,0,1-1.4.25c-.62,0-1.63,0-3-.12-1.53-.09-2.66-.14-3.46-.14a9.93,9.93,0,0,0-1.79.19L365,32c-.13,0-.64,0-2.07-.24a13.75,13.75,0,0,0-3.14-.41ZM372,51a2.48,2.48,0,0,1,1.07-.15,12.9,12.9,0,0,1,2.36.38,19.57,19.57,0,0,0,4.09.57,5.87,5.87,0,0,0,3.05-.94c.47,0,1.28.1,2.66.25a17.42,17.42,0,0,1-.84,1.94,5.7,5.7,0,0,1-.85.83,4,4,0,0,0-1.72,2.24c-.58,1.94-1,3.48-1.3,4.69a14.85,14.85,0,0,1-1.41,1.9,4.92,4.92,0,0,0-.44.58c-.84,1.32-1.72,2.8-2.63,4.41a3.41,3.41,0,0,0-.17.33c-1.18,2.62-2.21,5-3.09,7,0-.21,0-.41.05-.61a11.55,11.55,0,0,0-.36-3.72,1.33,1.33,0,0,0-.05-.19c-.34-1.16-.46-1.66-.5-1.84-.15-2.12-.22-4.52-.22-7.15,0-.41,0-1.22.11-2.79s.14-2.39.14-3c0-2,0-3.5,0-4.71l0,0Z"/><path class="cls-1" d="M443.23,127.19c-1,0-2.6-.46-3-3.51a13.34,13.34,0,0,0-.43-2,6.37,6.37,0,0,0-1-.73,6,6,0,0,1-2.16-2.19,2,2,0,0,1-.13-.34,3.54,3.54,0,0,1,.53-2.73,5.5,5.5,0,0,0-1.11-1.15,2.07,2.07,0,0,1-.58-.6c-.19-.3-.45-.71-2-5.49a8.49,8.49,0,0,0-1.86-3.54,3.37,3.37,0,0,0-.65-.27,2,2,0,0,1-1.37-1.2,14.84,14.84,0,0,1-.73-3.87,10.32,10.32,0,0,0-.5-2.6,17.59,17.59,0,0,0-2.67-2.56,1.94,1.94,0,0,1-.78-1.1,8.37,8.37,0,0,1-.34-2.11,44.08,44.08,0,0,0-2.23-5.3A18.3,18.3,0,0,0,420.64,84a11.23,11.23,0,0,1-2.06-2.86c-.61-1-.11-2,.78-3.73,1.48-2.83,2.57-4.94,3.28-6.37q1-3.35,1.52-5a2.28,2.28,0,0,1,.2-.45,32.4,32.4,0,0,1,2.75-4.12,31.09,31.09,0,0,0,1.19-3.81,1.8,1.8,0,0,1,.21-.56c1.58-2.84,2.85-4.92,3.85-6.34l1.81-4.17a10.45,10.45,0,0,1,2.07-2.89,6.31,6.31,0,0,0,1.36-1.91,2.29,2.29,0,0,1,.1-.23h0a3.35,3.35,0,0,0,0-1.17,6.22,6.22,0,0,1,.28-3.1,6.31,6.31,0,0,1,3.15-3.84l.12-.06a4.24,4.24,0,0,1,1.53-.29,4.76,4.76,0,0,1,3.11,1.26l.26.27a16.21,16.21,0,0,1,2.21,3.38c.9,1.77,1.6,3.11,2.1,4s.85,1.57,1.12,2a2.11,2.11,0,0,1,.16.3c1.43,3.41,2.52,6,3.28,7.76.8,2,1.4,3.41,1.82,4.42,1,1.38,1.77,2.41,2.31,3.06a2,2,0,0,1,.35.63c.85,2.51,1.43,4.45,1.76,5.89a8.47,8.47,0,0,0,.88,1.26,2.46,2.46,0,0,1,.31.48c1,2.23,1.83,4,2.32,5.19.12.17.41.6,1.11,1.58a6.89,6.89,0,0,1,1.34,2.79,10.82,10.82,0,0,0,.44,1.47,4.44,4.44,0,0,1,.17,2.7c-.18.86-.76,2.63-3.6,7.1l-.13.17c-1.37,1.73-2.44,3-3.24,4a62.87,62.87,0,0,0-2.14,6.28,1.91,1.91,0,0,1-.37.74l-2,2.54a14.73,14.73,0,0,0-.63,2,2.24,2.24,0,0,1-.11.34,20,20,0,0,0-1.3,3.67,2,2,0,0,1-.69,1.56,4.28,4.28,0,0,1-.88.6c-.54,1.38-.93,2.5-1.16,3.34a1.84,1.84,0,0,1-.28.62c-.74,1.07-1.31,1.86-1.69,2.39-1.82,3-2.41,4-2.64,4.3-.05.21-.18.79-.4,2.26-.4,3.06-2.2,3.59-3,3.66Zm-1-32.63a2.08,2.08,0,0,1,.45.53c.4.68.74,1.29,1,1.83l.26-.28a60.9,60.9,0,0,0,2.1-5.76,2.09,2.09,0,0,1,.4-.75c1.12-1.32,2-2.3,2.72-3a10.37,10.37,0,0,0,1.44-3.62.68.68,0,0,1,0-.14,11.54,11.54,0,0,1,1.13-2.95,4.46,4.46,0,0,0,.47-1.39,16.42,16.42,0,0,0-1.53-2.84,1.81,1.81,0,0,1-.22-.41,24.93,24.93,0,0,0-1.45-3.2,1.84,1.84,0,0,1-.17-.38,3.31,3.31,0,0,1-.15-.69A15,15,0,0,1,446.87,68c-1.17-1.49-2.08-2.58-2.71-3.25a2,2,0,0,1-.36-.54c-.27-.59-.49-1.12-.67-1.61l-.36.32a30.8,30.8,0,0,0-2.13,3.88c0,.09-.08.17-.13.26-1.63,2.75-2.82,4.79-3.55,6.07a18.89,18.89,0,0,0-.41,2.63,2,2,0,0,1-.84,1.52,10.63,10.63,0,0,1-1.22.75,6.68,6.68,0,0,0,.27,1.89,36.33,36.33,0,0,0,2.51,4,1.66,1.66,0,0,1,.19.3A33.88,33.88,0,0,1,439.61,89a2,2,0,0,1,.1.64,5.69,5.69,0,0,1-.07.94,3.61,3.61,0,0,1,2.33,2,1.69,1.69,0,0,1,.13.49A11,11,0,0,1,442.21,94.56Zm15-56.6a1.91,1.91,0,0,1-1.35-.54,19.19,19.19,0,0,1-3.44-4.36,1.68,1.68,0,0,1-.16-.33c-.16-.46-.29-.85-.39-1.2a3.06,3.06,0,0,0-.36-.25,2,2,0,0,1-1-1.32c-.09-.43-.15-.8-.19-1.11a7.11,7.11,0,0,0-.48-.64.69.69,0,0,1-.11-.13,5.06,5.06,0,0,1-1.16-3,3.69,3.69,0,0,1,1.44-2.8,9.83,9.83,0,0,0,.94-.9,1.48,1.48,0,0,1,.25-.25A10.07,10.07,0,0,1,452.89,20,5.27,5.27,0,0,0,454,18.16a3.49,3.49,0,0,1,.38-3.16,3,3,0,0,1,2.58-1.18,5.87,5.87,0,0,1,2.05.45l.17.08a6.27,6.27,0,0,1,2.74,2.77c.45.85.88,1.67,1.28,2.47l2.38,2.85c1.6,1.81,2.36,3.32,2.36,4.7,0,.5-.2,2.14-2.75,2.4h-.07a25,25,0,0,0-1.76,2.78,2,2,0,0,1-.25.39c-1.24,1.47-2.2,2.59-2.91,3.39a1.78,1.78,0,0,1-.28.68,2.7,2.7,0,0,1-2.14,1.1A2,2,0,0,1,457.21,38Zm-26.7-.86c-1.93,0-2.57-2.13-3-3.54a9.57,9.57,0,0,0-.88-2.2,7.18,7.18,0,0,0-1.26-.85,2.1,2.1,0,0,1-.46-.32,11.51,11.51,0,0,1-3.08-3.73,6.63,6.63,0,0,1-.51-4.74,2.1,2.1,0,0,1,.77-1,6.76,6.76,0,0,1,1.92-.93c.21-.28.49-.7.88-1.31a19.34,19.34,0,0,1,1.72-2.38l.07-.07c2.06-2.06,3.58-3,4.95-3.17h.2c.22,0,2.23.07,2.43,2.67,0,.34.07.63.09.83,1,1.39,1.71,2.47,2.25,3.19l.07.11c1.39,2.15,1.91,2.94,2.11,3.22l.06.1c.11.11.35.31.81.68a3.7,3.7,0,0,1,1.44,2.59v.18a2.93,2.93,0,0,1-1.6,2.68,3.3,3.3,0,0,0-.61.42c-1.34,1.13-2.29,1.94-2.85,2.44l-1.12,1a3.34,3.34,0,0,0-.22.6,4.83,4.83,0,0,1-1.37,2.4l-.17.13A4.7,4.7,0,0,1,430.51,37.1Z"/><path class="cls-2" d="M431.84,14.81c.25,0,.4.27.44.82a12.1,12.1,0,0,0,.19,1.46c1.09,1.6,1.94,2.8,2.53,3.6,1.13,1.77,1.85,2.86,2.15,3.29q0,.18,1.26,1.2a1.67,1.67,0,0,1,.69,1.2,1,1,0,0,1-.53.91,5.29,5.29,0,0,0-1,.67q-2,1.71-2.88,2.46l-1.23,1.11a3.29,3.29,0,0,0-.7,1.42,3.06,3.06,0,0,1-.76,1.46,3.2,3.2,0,0,1-1.51.69c-.3,0-.66-.7-1.08-2.12a9.56,9.56,0,0,0-1.32-3,10.12,10.12,0,0,0-1.84-1.26,10.22,10.22,0,0,1-2.59-3,4.67,4.67,0,0,1-.44-3.35,4,4,0,0,1,1.89-.76,17.26,17.26,0,0,0,1.46-2.05,17.08,17.08,0,0,1,1.52-2.12c1.64-1.64,2.88-2.51,3.73-2.59m25.09,1a4,4,0,0,1,1.33.32,4.33,4.33,0,0,1,1.86,1.92c.49.91.94,1.79,1.36,2.63l2.53,3c1.27,1.44,1.9,2.57,1.9,3.42,0,.21-.32.34-1,.41a1.81,1.81,0,0,0-1.2.41,28.54,28.54,0,0,0-2.21,3.47q-2,2.41-3.1,3.61c-.21.21-.29.4-.22.57s-.27.27-1,.31V36a17.87,17.87,0,0,1-3.1-3.92q-.37-1.08-.51-1.65a7.22,7.22,0,0,0-1.13-.88,6.68,6.68,0,0,1-.19-1.33,8.71,8.71,0,0,0-.95-1.33,3.12,3.12,0,0,1-.76-1.83,1.83,1.83,0,0,1,.76-1.3,14,14,0,0,0,1.14-1.1,6.12,6.12,0,0,1,1.64-1.08c1.43-1.72,2-3,1.77-3.85-.38-1.27,0-1.9,1-1.9M442.8,35.14a2.8,2.8,0,0,1,1.8.78,13.62,13.62,0,0,1,2,3q1.4,2.73,2.15,4.14c.51.95.91,1.66,1.2,2.12,1.44,3.42,2.53,6,3.29,7.78.84,2.06,1.48,3.6,1.9,4.61,1.09,1.52,1.94,2.64,2.53,3.35a61.06,61.06,0,0,1,1.77,6,12.45,12.45,0,0,0,1.26,1.83Q462.31,72.21,463,74q.19.31,1.26,1.83a5.13,5.13,0,0,1,1,2,14.8,14.8,0,0,0,.5,1.71,2.64,2.64,0,0,1,.13,1.58q-.37,1.83-3.35,6.51-2.22,2.79-3.42,4.18a64.07,64.07,0,0,0-2.33,6.82l-2.22,2.78a21.68,21.68,0,0,0-.82,2.6c-1,2.44-1.5,3.94-1.45,4.48a1.93,1.93,0,0,1-1.08.51,40.65,40.65,0,0,0-1.58,4.42c-.76,1.1-1.33,1.9-1.7,2.41-1.69,2.78-2.61,4.27-2.75,4.49a12.38,12.38,0,0,0-.61,2.9c-.16,1.27-.59,1.92-1.26,2h-.11c-.53,0-.87-.59-1-1.78a9.32,9.32,0,0,0-.72-2.84,6.24,6.24,0,0,0-1.52-1.3,4.33,4.33,0,0,1-1.49-1.42,1.87,1.87,0,0,1,.41-1.3c.36-.57.5-1,.41-1.23a9.44,9.44,0,0,0-2.21-2.46,50.36,50.36,0,0,1-1.83-5.06,9.75,9.75,0,0,0-2.59-4.55,5.74,5.74,0,0,0-1.33-.57,13.66,13.66,0,0,1-.6-3.32,10.49,10.49,0,0,0-.79-3.51,20.65,20.65,0,0,0-3.23-3.1,5.64,5.64,0,0,1-.25-1.89,44.79,44.79,0,0,0-2.53-6,17.26,17.26,0,0,0-1.83-2.18,8.19,8.19,0,0,1-1.77-2.5,9.45,9.45,0,0,1,.82-1.83q2.28-4.36,3.35-6.51,1.08-3.48,1.58-5.18a28.17,28.17,0,0,1,2.78-4.11,33.58,33.58,0,0,0,1.39-4.43,73.89,73.89,0,0,1,3.86-6.32c.84-1.94,1.48-3.39,1.9-4.36a8.85,8.85,0,0,1,1.7-2.34,8.25,8.25,0,0,0,1.77-2.59,4.27,4.27,0,0,0,.23-2.28,4.2,4.2,0,0,1,.15-2.15A4.42,4.42,0,0,1,442,35.29a2.17,2.17,0,0,1,.79-.15m.48,66.27a2,2,0,0,1,.19-.31,9.05,9.05,0,0,1,2.15-3.29q1.69-4.17,2.34-6.38a38.29,38.29,0,0,1,2.78-3,12.68,12.68,0,0,0,1.83-4.61,9.93,9.93,0,0,1,.95-2.44,5.31,5.31,0,0,0,.69-2.68,19.12,19.12,0,0,0-1.89-3.61,27.87,27.87,0,0,0-1.58-3.47.62.62,0,0,1,0-.57,13.42,13.42,0,0,1-2-3.86c-1.34-1.73-2.38-3-3.09-3.73a10.05,10.05,0,0,1-1-3.16c-.21-.47-.35-.71-.42-.71s0,0,0,0a14,14,0,0,0-3,2.14,33.87,33.87,0,0,0-2.4,4.37q-2.66,4.48-3.73,6.38a25.44,25.44,0,0,0-.51,3.23,5.59,5.59,0,0,1-1.89.94,7.73,7.73,0,0,0,.25,4.11,38.78,38.78,0,0,0,2.78,4.43,32.19,32.19,0,0,1,2,4.49,2.62,2.62,0,0,1-.38,1.51,2.31,2.31,0,0,0,1.49,1.27,1.82,1.82,0,0,1,1.3,1,6.21,6.21,0,0,1,0,2.14,2.11,2.11,0,0,0,.82.57,16.68,16.68,0,0,1,1.58,3.23l.76,2.08m-11.44-90.6-.4,0c-1.88.19-3.73,1.31-6.16,3.74l-.15.16a18.75,18.75,0,0,0-1.91,2.64l-.46.7A9,9,0,0,0,421,19a4,4,0,0,0-1.54,2.08,8.45,8.45,0,0,0,.56,6.11,13.3,13.3,0,0,0,3.58,4.44,4,4,0,0,0,.91.62,6.47,6.47,0,0,1,.6.4,10.5,10.5,0,0,1,.52,1.44c.44,1.49,1.48,5,4.91,5a6.75,6.75,0,0,0,3.78-1.4,2.78,2.78,0,0,0,.34-.26,6.77,6.77,0,0,0,2-3.36l.75-.67c.54-.48,1.48-1.28,2.8-2.39a1,1,0,0,1,.27-.19,5,5,0,0,0,2.66-4.45c0-.12,0-.24,0-.36a5.76,5.76,0,0,0-2.18-4c-.26-.2-.43-.34-.54-.44-.19-.28-.69-1-2-3.08a1.91,1.91,0,0,0-.14-.21c-.47-.63-1.11-1.55-1.92-2.73a2.53,2.53,0,0,1,0-.32,4.51,4.51,0,0,0-4.42-4.46Zm25.09,1a5,5,0,0,0-4.19,2,5.19,5.19,0,0,0-.87,4.13c-.08.12-.18.28-.32.47A12.64,12.64,0,0,0,450,19.56a5.55,5.55,0,0,0-.49.48,7,7,0,0,1-.74.7,5.65,5.65,0,0,0-2.12,4.31,7,7,0,0,0,1.56,4.23l.21.26.07.08c0,.24.09.49.15.76a3.94,3.94,0,0,0,1.57,2.4c.06.2.13.4.21.62a3.93,3.93,0,0,0,.3.66,21.88,21.88,0,0,0,3.79,4.8A4,4,0,0,0,457.25,40a3.75,3.75,0,0,0,1.1-.16,4.49,4.49,0,0,0,3.22-1.95,4.11,4.11,0,0,0,.4-.78c.69-.79,1.55-1.8,2.64-3.09a3.82,3.82,0,0,0,.51-.79,18.87,18.87,0,0,1,1.13-1.83,4.37,4.37,0,0,0,3.66-4.25c0-1.89-.91-3.8-2.86-6l-.86-1-1.34-1.61c-.38-.74-.78-1.52-1.2-2.3a8.23,8.23,0,0,0-3.6-3.62l-.36-.16a7.68,7.68,0,0,0-2.76-.58ZM442.8,31.14a5.92,5.92,0,0,0-2.27.44l-.24.1a8.23,8.23,0,0,0-4.15,4.92,8,8,0,0,0-.41,4,3.84,3.84,0,0,1,0,.42s0,.07,0,.11h0a6.2,6.2,0,0,1-.94,1.22,12.15,12.15,0,0,0-2.46,3.5l-1.24,2.85-.46,1.08c-1,1.47-2.29,3.55-3.85,6.34a3.92,3.92,0,0,0-.42,1.14,26.09,26.09,0,0,1-1,3.21,37.54,37.54,0,0,0-2.71,4.11,4.11,4.11,0,0,0-.38.89c-.32,1.08-.81,2.68-1.47,4.82-.71,1.41-1.77,3.48-3.17,6.16l0,.06c-.88,1.77-1.87,3.75-.74,5.61a12.8,12.8,0,0,0,2.35,3.24c.86.93,1.21,1.37,1.33,1.53a37.71,37.71,0,0,1,1.95,4.64,11,11,0,0,0,.4,2.25A4,4,0,0,0,424.42,96a14,14,0,0,1,2.05,2,11.81,11.81,0,0,1,.28,1.75,15.77,15.77,0,0,0,.87,4.43,4,4,0,0,0,2.66,2.38,7.17,7.17,0,0,1,1.14,2.43l0,.09c1.56,4.66,1.9,5.37,2.24,5.92a4.11,4.11,0,0,0,1,1.1,4.78,4.78,0,0,0-.08,2.87,2.91,2.91,0,0,0,.27.69,7.87,7.87,0,0,0,2.82,3l.3.21c.06.26.14.65.23,1.21.68,4.93,4.27,5.18,5,5.18l.55,0c1.17-.12,4.17-.88,4.79-5.38.13-.94.23-1.47.29-1.75l2.42-4c.4-.54,1-1.32,1.67-2.36a3.69,3.69,0,0,0,.57-1.24c.18-.64.46-1.48.85-2.51a4.1,4.1,0,0,0,.58-.45,4,4,0,0,0,1.36-2.83,26.65,26.65,0,0,1,1.16-3.13,4.33,4.33,0,0,0,.21-.7,13.56,13.56,0,0,1,.45-1.45l1.81-2.27a4,4,0,0,0,.74-1.49,53.53,53.53,0,0,1,1.95-5.74c.79-.94,1.79-2.18,3.06-3.77a2.62,2.62,0,0,0,.24-.34c2.93-4.6,3.62-6.58,3.88-7.77a6.61,6.61,0,0,0-.26-3.8c-.24-.75-.32-1-.34-1.12v0a8.92,8.92,0,0,0-1.71-3.6c-.51-.72-.78-1.12-.92-1.33-.51-1.24-1.26-2.92-2.29-5.1a4.61,4.61,0,0,0-.63-1,6.58,6.58,0,0,1-.5-.71c-.36-1.47-.93-3.36-1.73-5.75a4,4,0,0,0-.71-1.26c-.48-.59-1.19-1.52-2.1-2.77-.41-1-1-2.38-1.7-4.16l0-.07q-1.14-2.64-3.28-7.75a3.7,3.7,0,0,0-.31-.59c-.16-.26-.48-.79-1.05-1.86-.48-.9-1.17-2.23-2.05-4a18.36,18.36,0,0,0-2.46-3.77,4.34,4.34,0,0,0-.52-.53,6.7,6.7,0,0,0-4.41-1.75Zm-3.95,42.74c.74-1.28,1.87-3.21,3.38-5.77a3.23,3.23,0,0,0,.25-.49,11.3,11.3,0,0,1,.54-1.11c.42.47,1.08,1.25,2.07,2.5a18,18,0,0,0,1.69,3.23,5.39,5.39,0,0,0,.16.6,4,4,0,0,0,.35.76,23.51,23.51,0,0,1,1.31,2.92,4.27,4.27,0,0,0,.43.82,13.24,13.24,0,0,1,1.07,1.88l-.14.3A13.87,13.87,0,0,0,448.65,83a2.33,2.33,0,0,0,0,.28,7.75,7.75,0,0,1-1.05,2.64c-.72.72-1.59,1.68-2.64,2.93a4,4,0,0,0-.8,1.49c-.11.37-.24.8-.41,1.28a5.24,5.24,0,0,0-2-2.23,3.77,3.77,0,0,0-.19-1,37.38,37.38,0,0,0-2.27-5.08,5.36,5.36,0,0,0-.38-.59,29.71,29.71,0,0,1-2.23-3.52l0-.08a2.2,2.2,0,0,0,.25-.17,4,4,0,0,0,1.69-3,15.63,15.63,0,0,1,.3-2Z"/><path class="cls-1" d="M528.8,122.26a30.24,30.24,0,0,1-3.72-.28l-.15,0a30.42,30.42,0,0,0-3.45-.58,38.71,38.71,0,0,1-3.88.24h0a5.92,5.92,0,0,1-2.06-.47,1.26,1.26,0,0,0-.38-.1,13,13,0,0,1-3.67.82,2.73,2.73,0,0,1-2.76-3v-1a6.73,6.73,0,0,0-.59-2.64c-.18-.23-.82-1-3.06-3.21a1.92,1.92,0,0,1-.26-.32,52.57,52.57,0,0,0-3.34-4.32,49.4,49.4,0,0,1-5.24-4.27l-.08-.07a5.08,5.08,0,0,1-1.22-2.89,4.57,4.57,0,0,0-.19-.81,6,6,0,0,0-.84-.33,12.13,12.13,0,0,1-2-.72,1.66,1.66,0,0,1-.39-.26c-.36-.3-.88-.69-1.56-1.16,0,.13.05.28.08.43a2.11,2.11,0,0,1,0,.25,9.82,9.82,0,0,1-1.58,6c-.13.24-.55,1.26-.5,4a1.87,1.87,0,0,1-.15.8c-.19.47-.38,1-.56,1.57a2.65,2.65,0,0,1,1.53,2.28.69.69,0,0,0,.12.21,23.83,23.83,0,0,1,2.11,1.3l.23.18a15.07,15.07,0,0,0,1.6,1.3,3.75,3.75,0,0,1,1.82,2.89,2.46,2.46,0,0,1-1.06,2l-.1.07a10.29,10.29,0,0,1-4.86,1.45h-4.58a2.19,2.19,0,0,1-.36,0,16.5,16.5,0,0,0-2.49-.22c-.34,0-1.32,0-3.63.3a26.53,26.53,0,0,1-3.76.34h-.53l-.16,0c-2.76-.34-4.22-1.39-4.34-3.11-.1-1,.09-3.68,4.1-4.84l.14,0a1,1,0,0,0,.06-.28c.05-.85.11-1.76.2-2.73a1.75,1.75,0,0,1,.12-.54,15.39,15.39,0,0,0,.12-2c.17-3.71.25-6.91.25-9.56a10.15,10.15,0,0,0-.19-1.59,13.87,13.87,0,0,1-.25-2.2,7.57,7.57,0,0,1,.57-2.57,3.73,3.73,0,0,0,.32-1.16,2.78,2.78,0,0,0-.3-1,6.27,6.27,0,0,1-.65-2.57c0-1.1,0-2.38-.13-3.8V83.8a33,33,0,0,1,.88-5.85.43.43,0,0,1,0-.11,14.36,14.36,0,0,0,.57-4.4c-.4-.76-.79-1.55-1.16-2.36a2,2,0,0,1-.18-.83V61.72A15.86,15.86,0,0,0,473,59.3a20.39,20.39,0,0,1-.35-3.08,8.85,8.85,0,0,1,.83-3.84,2.21,2.21,0,0,1,.3-.45,9.81,9.81,0,0,0-.29-1.13,9.63,9.63,0,0,1-.46-2.68,15.41,15.41,0,0,1,.35-3.1,12.09,12.09,0,0,0-.08-2.25,25,25,0,0,0-.37-3.05c-.17-.62-.39-.81-.57-.91-2.42-1.21-3.69-2.75-3.69-4.53,0-.28.1-2.76,3.46-2.76a12.54,12.54,0,0,1,2.76.4,10.18,10.18,0,0,0,1.54.3,9.86,9.86,0,0,0,1.59-.19,13.11,13.11,0,0,1,2.26-.26,8.86,8.86,0,0,1,3.85.93,3.58,3.58,0,0,0,.77.09,9,9,0,0,0,1.85-.32,11.21,11.21,0,0,1,2.63-.44c3.27,0,3.52,2,3.52,2.63,0,.83-.41,1.65-1.51,3a9.45,9.45,0,0,0-.89,1.28c-.12.74-.28,1.76-.46,3.05a2.1,2.1,0,0,1-.19.6,33.34,33.34,0,0,0-1.64,4.27c0,.46-.09,1.56-.24,4.31a6.76,6.76,0,0,1-.86,3.27,1.9,1.9,0,0,0-.15.84,12.72,12.72,0,0,1,.84,1.42,1.8,1.8,0,0,1,.16.38,6.08,6.08,0,0,1,.2,1.62,12.72,12.72,0,0,1-.47,2.95,12,12,0,0,0-.35,1.86,28.25,28.25,0,0,1,.43,3.3,1.93,1.93,0,0,1,0,.34c0,.42-.09,1-.18,1.85a9.51,9.51,0,0,1,1.9-2.54,3.05,3.05,0,0,0,.76-1.77,8.19,8.19,0,0,1,2.1-4.06l.11-.12,1.24-1.24c.43-1,1.1-2.52,2-4.55.27-.63,1.56-3.76,3.82-9.29q.65-1.55,2-4.78c.22-.59.37-1,.46-1.32A5.71,5.71,0,0,1,500.19,38a1.38,1.38,0,0,1-.17-.25c-.7-1.21-1.44-2.79-.9-4.21a2.66,2.66,0,0,1,1.68-1.59l.13,0a13.14,13.14,0,0,1,3.1-.51,7.81,7.81,0,0,1,2.29.48,8.62,8.62,0,0,0,2.2.34c.14,0,.43-.12,1-.31a9.69,9.69,0,0,1,2.89-.51,12.31,12.31,0,0,1,4,1,8.8,8.8,0,0,0,2.08.13c.71,0,1.54,0,2.51-.06.23,0,.48,0,.71,0,3,0,3.27,1.89,3.27,2.47a2,2,0,0,1-.29,1l-.61,1A14,14,0,0,1,522.7,39a23.12,23.12,0,0,1-2.62,2.84,2.06,2.06,0,0,1-1.07.54c0,.2-.09.41-.14.63a2,2,0,0,1-.22.55A6.44,6.44,0,0,1,516,45.84a4.75,4.75,0,0,0-1.32.91A30,30,0,0,0,513,51c-.06.27-.19,1-.4,2.09a7.29,7.29,0,0,1-1.65,3.31,16,16,0,0,0-.75,1.8A8.75,8.75,0,0,1,507.55,62a11.77,11.77,0,0,0-1.2,1.11,3.84,3.84,0,0,1,.18,1.12,5.84,5.84,0,0,1-.8,2.71,1.93,1.93,0,0,1-.45.57,18.39,18.39,0,0,0-2,2.16,32.94,32.94,0,0,1-1,3.44l-.09.22c-.9,1.83-2,4-3.32,6.45a1.67,1.67,0,0,1-.18.28,2.18,2.18,0,0,0-.45.9c0,.07,0,.13,0,.19a13.41,13.41,0,0,0-.59,2.27,17.69,17.69,0,0,0,1.88,2c1.19.89,2.74,2.21,4.73,4a2,2,0,0,1,.61,1.11,4.76,4.76,0,0,0,.45,1c1.05.8,2.47,2,4.23,3.4a2.17,2.17,0,0,1,.48.57,35.43,35.43,0,0,0,2.85,4.11,15.27,15.27,0,0,1,2.88,1.41l.19.13a8.56,8.56,0,0,1,2.24,3,12.82,12.82,0,0,0,1.19,2,15.88,15.88,0,0,0,3.51,2.57A12.64,12.64,0,0,1,525.7,111a46.24,46.24,0,0,1,4.32,3.81,12.31,12.31,0,0,1,2.74,3.17,2,2,0,0,1,.32,1,2.9,2.9,0,0,1-.77,2.19,3.9,3.9,0,0,1-3,1.06Z"/><path class="cls-2" d="M512.43,33.39a10.64,10.64,0,0,1,3.29.83,9.42,9.42,0,0,0,2.78.25c.73,0,1.6,0,2.59-.06l.63,0c.85,0,1.27.16,1.27.47L522.3,36a11.21,11.21,0,0,1-1.21,1.83,21.81,21.81,0,0,1-2.4,2.59,2.5,2.5,0,0,0-.69-.09,4,4,0,0,0-.82.09,7.42,7.42,0,0,1-.26,2.15,4.57,4.57,0,0,1-1.86,1.52,6.13,6.13,0,0,0-2,1.45A28.4,28.4,0,0,0,511,50.46c0,.17-.19.93-.44,2.28a5.55,5.55,0,0,1-1.26,2.46,11.65,11.65,0,0,0-1,2.31,6.52,6.52,0,0,1-2,2.94c-1.39,1.14-2.08,2-2.08,2.53a2.24,2.24,0,0,0,.15.54,1.93,1.93,0,0,1,.16.72A4,4,0,0,1,504,66a24,24,0,0,0-2.53,2.78,25.54,25.54,0,0,1-1.07,3.67q-1.32,2.72-3.29,6.39a4.25,4.25,0,0,0-.82,1.7q-.88,2.79-.63,3.42a10.84,10.84,0,0,0,2.53,3c1.14.84,2.69,2.17,4.68,4a6.23,6.23,0,0,0,.88,2q1.57,1.2,4.49,3.61a42.31,42.31,0,0,0,3.41,4.86,11.58,11.58,0,0,1,3,1.39,7.11,7.11,0,0,1,1.67,2.34,13.76,13.76,0,0,0,1.49,2.47,17.66,17.66,0,0,0,4.11,3,13.13,13.13,0,0,1,2.53,2,45.44,45.44,0,0,1,4.29,3.8,9.89,9.89,0,0,1,2.34,2.71q.06,1.14-1.77,1.14h-.51a30.19,30.19,0,0,1-3.47-.26,30.85,30.85,0,0,0-3.92-.63,35.27,35.27,0,0,1-3.86.25,4.73,4.73,0,0,1-1.32-.35,3.25,3.25,0,0,0-1.1-.22,1.86,1.86,0,0,0-.48.06,13.7,13.7,0,0,1-3.16.76c-.51,0-.76-.31-.76-1v-1a8.87,8.87,0,0,0-.82-3.6,33.47,33.47,0,0,0-3.42-3.67,57.85,57.85,0,0,0-3.66-4.74,42.41,42.41,0,0,1-5.25-4.23,3.37,3.37,0,0,1-.66-1.8,3.66,3.66,0,0,0-.67-1.84,4.16,4.16,0,0,0-1.74-.88,17.54,17.54,0,0,1-1.67-.6,31.43,31.43,0,0,0-2.59-1.9,8.93,8.93,0,0,0-1.9-.89c-.38,0-.57.43-.57,1.27a17.86,17.86,0,0,0,.32,2.65,8,8,0,0,1-1.27,4.81,10.45,10.45,0,0,0-.82,5.12,26,26,0,0,0-1.07,3.29c0,.38.36.61,1,.69s.91.34.91.76a2.7,2.7,0,0,0,.89,1.71,16.45,16.45,0,0,1,2.21,1.32,19,19,0,0,0,1.8,1.46c.65.46,1,.88,1,1.26a.49.49,0,0,1-.25.38,8.38,8.38,0,0,1-3.92,1.14h-4.43a18.87,18.87,0,0,0-2.78-.25c-.67,0-2,.1-3.92.31a24.39,24.39,0,0,1-3.54.33h-.44c-1.69-.21-2.55-.63-2.59-1.27-.13-1.3.76-2.23,2.65-2.78a2.16,2.16,0,0,0,1.65-2.08c0-.85.1-1.75.19-2.72a10,10,0,0,0,.25-2.66c.17-3.7.25-6.91.25-9.6a12.19,12.19,0,0,0-.22-1.93,12.38,12.38,0,0,1-.22-1.87,5.75,5.75,0,0,1,.44-1.86,5.55,5.55,0,0,0,.45-1.87,4.48,4.48,0,0,0-.48-1.8,4.46,4.46,0,0,1-.47-1.74c0-1.14-.05-2.44-.13-3.92a31.08,31.08,0,0,1,.82-5.5,16.56,16.56,0,0,0,.63-5.5c-.46-.84-.9-1.72-1.32-2.65V61.71A18.44,18.44,0,0,0,475,59a18.68,18.68,0,0,1-.32-2.75,6.89,6.89,0,0,1,.64-3,1.71,1.71,0,0,0,.5-1.26,7.48,7.48,0,0,0-.38-1.74,8,8,0,0,1-.38-2.12,13.8,13.8,0,0,1,.32-2.78,13.45,13.45,0,0,0-.06-2.78,24.21,24.21,0,0,0-.45-3.41,3.15,3.15,0,0,0-1.51-2.09c-1.77-.88-2.66-1.81-2.66-2.78,0-.51.49-.76,1.46-.76a11.06,11.06,0,0,1,2.3.35,11.27,11.27,0,0,0,2,.35,12,12,0,0,0,1.95-.22,11.21,11.21,0,0,1,1.9-.23,6.78,6.78,0,0,1,3.16.83,6.36,6.36,0,0,0,1.46.19,10.61,10.61,0,0,0,2.33-.38,10,10,0,0,1,2.15-.38c1,0,1.52.21,1.52.63a4.53,4.53,0,0,1-1.07,1.8,7.57,7.57,0,0,0-1.27,2c-.12.76-.29,1.86-.5,3.29a36,36,0,0,0-1.84,4.8c0,.09-.08,1.6-.25,4.55a4.78,4.78,0,0,1-.57,2.34A4.8,4.8,0,0,0,485,56a7.29,7.29,0,0,1,1.07,1.64,3.68,3.68,0,0,1,.13,1.07,11.52,11.52,0,0,1-.41,2.47,11.49,11.49,0,0,0-.41,2.53,25.23,25.23,0,0,1,.44,3.28c0,.51-.13,1.31-.25,2.41a16.71,16.71,0,0,0,0,3.22,11.25,11.25,0,0,0,.19,3.16,1.78,1.78,0,0,0,1.1.61.71.71,0,0,0,.6-.36,7.06,7.06,0,0,0,1-2.87,10.53,10.53,0,0,1,.73-2.69,7.22,7.22,0,0,1,1.77-2.59A4.94,4.94,0,0,0,492.27,65a6.43,6.43,0,0,1,1.64-3l1.52-1.52q.63-1.52,2.15-4.87.44-1,3.85-9.35c.43-1,1.1-2.59,2-4.74.63-1.69.88-2.64.76-2.85s-.43-.63-1.14-1a4.65,4.65,0,0,1-1.33-.89c-1-1.68-1.07-2.65-.32-2.9a11.21,11.21,0,0,1,2.6-.45,6.5,6.5,0,0,1,1.67.38,11,11,0,0,0,2.94.45,8.49,8.49,0,0,0,1.52-.41,7.28,7.28,0,0,1,2.27-.42m0-4a11.53,11.53,0,0,0-3.51.61l-.61.19a6.07,6.07,0,0,1-1.37-.22,9.59,9.59,0,0,0-2.91-.58,14.65,14.65,0,0,0-3.6.58l-.26.07a4.71,4.71,0,0,0-2.92,2.78c-.84,2.23.19,4.44,1,5.92a4.46,4.46,0,0,0,.35.5,5,5,0,0,0,1,1c-.87,2-1.5,3.51-1.91,4.48-2.77,6.78-3.61,8.79-3.82,9.27-.81,1.8-1.43,3.19-1.87,4.21l-.18.18-.79.79-.21.23c-.3.36-.58.71-.83,1.05a9.75,9.75,0,0,0,.16-1.68,7.76,7.76,0,0,0-.28-2.17,4.18,4.18,0,0,0-.31-.76c-.15-.3-.31-.58-.46-.83a9.24,9.24,0,0,0,.86-3.69c.13-2.27.19-3.42.22-4a30,30,0,0,1,1.44-3.74,4,4,0,0,0,.38-1.21c.16-1.07.3-2,.4-2.64.11-.15.28-.39.55-.74,1.2-1.51,1.94-2.75,1.94-4.28,0-1.72-1.16-4.63-5.52-4.63a13.09,13.09,0,0,0-3.12.5,8.42,8.42,0,0,1-1.37.26h-.16a10.53,10.53,0,0,0-4.45-1,15.16,15.16,0,0,0-2.62.29,6.78,6.78,0,0,1-1.14.15,9.73,9.73,0,0,1-1.17-.24,14.34,14.34,0,0,0-3.22-.45c-3.75,0-5.46,2.47-5.46,4.76,0,2.46,1.46,4.51,4.35,6.09,0,.28.14,1,.28,2.55a9.93,9.93,0,0,1,.09,1.81,17.4,17.4,0,0,0-.36,3.39,11.86,11.86,0,0,0,.54,3.25c0,.08.05.16.07.23a10.88,10.88,0,0,0-1,4.62,20.85,20.85,0,0,0,.38,3.41,15,15,0,0,1,.26,2.08v8.54a3.92,3.92,0,0,0,.36,1.65c.31.7.64,1.38,1,2a12.55,12.55,0,0,1-.49,3.35,1.6,1.6,0,0,0-.05.21,34.45,34.45,0,0,0-.92,6.21,3.08,3.08,0,0,0,0,.43c.08,1.39.12,2.64.12,3.69a8.24,8.24,0,0,0,.83,3.4,1.56,1.56,0,0,1,.07.17,2.88,2.88,0,0,1-.14.42,9.22,9.22,0,0,0-.7,3.28,15.89,15.89,0,0,0,.28,2.54,8.59,8.59,0,0,1,.16,1.26c0,2.62-.08,5.79-.25,9.42v.08c0,.92-.06,1.39-.08,1.6a4.3,4.3,0,0,0-.16.81c0,.59-.09,1.17-.13,1.72-4.36,1.79-4.46,5.34-4.36,6.54.13,1.59,1.1,4.28,6.08,4.91l.33,0h.61a28.19,28.19,0,0,0,4.05-.36c2.2-.24,3.05-.28,3.35-.28a14.48,14.48,0,0,1,2.11.18,3.61,3.61,0,0,0,.73.07h4.74a12.22,12.22,0,0,0,5.79-1.78l.22-.15a4.46,4.46,0,0,0,1.85-3.58,5.48,5.48,0,0,0-2.66-4.52,17,17,0,0,1-1.41-1.13,2.76,2.76,0,0,0-.46-.37c-.55-.38-1.06-.7-1.51-1a4.78,4.78,0,0,0-1-1.86.61.61,0,0,0,0-.12,3.9,3.9,0,0,0,.3-1.58,8.58,8.58,0,0,1,.28-3,11.86,11.86,0,0,0,1.6-4c.28.11.65.23,1.14.39a6.85,6.85,0,0,0,1.72,3.63l.14.13a50.25,50.25,0,0,0,5.24,4.28,46.39,46.39,0,0,1,3,3.92,4,4,0,0,0,.52.64c1.73,1.73,2.46,2.51,2.75,2.85a4.55,4.55,0,0,1,.32,1.59v1a4.74,4.74,0,0,0,4.76,5,13.27,13.27,0,0,0,3.68-.73,7.14,7.14,0,0,0,2.38.48h.1c1.62,0,2.89-.12,3.85-.23.45,0,1.34.18,3,.53l.3,0a32.12,32.12,0,0,0,4,.29h.6a5.83,5.83,0,0,0,4.36-1.68,4.92,4.92,0,0,0,1.32-3.68,4.08,4.08,0,0,0-.65-2,14.36,14.36,0,0,0-3.11-3.6,45.84,45.84,0,0,0-4.37-3.84,14.48,14.48,0,0,0-3.23-2.41,13.79,13.79,0,0,1-2.91-2.11,13,13,0,0,1-.91-1.61,10.47,10.47,0,0,0-2.81-3.72c-.13-.09-.25-.18-.39-.26A20.62,20.62,0,0,0,514,98a28.22,28.22,0,0,1-2.34-3.4,4.34,4.34,0,0,0-.95-1.14c-1.62-1.34-2.92-2.39-3.95-3.18,0-.08-.06-.13-.07-.16a4.09,4.09,0,0,0-1.2-2.09c-2-1.81-3.55-3.14-4.77-4.07-.47-.46-.8-.81-1-1.06.07-.29.18-.66.33-1.13,0-.12.07-.25.1-.37h0l.08-.12a2.9,2.9,0,0,0,.36-.55c1.32-2.47,2.45-4.67,3.35-6.51a3.93,3.93,0,0,0,.18-.43c.44-1.24.77-2.29,1-3.19A13.76,13.76,0,0,1,506.6,69a4,4,0,0,0,.9-1.14,7.8,7.8,0,0,0,1-3.64c0-.14,0-.28,0-.42a3,3,0,0,1,.32-.27,10.65,10.65,0,0,0,3.2-4.63c.31-.84.49-1.24.57-1.41a9.09,9.09,0,0,0,1.93-4.07c.21-1.13.31-1.64.36-1.88.8-2.21,1.21-3.18,1.4-3.57a5.88,5.88,0,0,1,.64-.38,8.32,8.32,0,0,0,3.44-3,3.77,3.77,0,0,0,.32-.71,3.89,3.89,0,0,0,.77-.58,24.51,24.51,0,0,0,2.86-3.12,15.69,15.69,0,0,0,1.52-2.32l.55-.92a3.92,3.92,0,0,0,.59-2.08c0-1.66-1.11-4.47-5.27-4.47l-.84,0c-.92,0-1.72.06-2.38.06a14.31,14.31,0,0,1-1.54-.06,13.64,13.64,0,0,0-4.53-1Z"/></svg>