<?xml version="1.0" encoding="utf-8"?>
<!-- Generator: Adobe Illustrator 25.0.0, SVG Export Plug-In . SVG Version: 6.00 Build 0)  -->
<svg version="1.1" id="Capa_1" xmlns="http://www.w3.org/2000/svg" xmlns:xlink="http://www.w3.org/1999/xlink" x="0px" y="0px"
	 viewBox="0 0 95 90" style="enable-background:new 0 0 95 90;" xml:space="preserve">
<path d="M21.9,16.2c0.2,0.9,0.6,1.7,1.1,2.4c0.7,1.4,1.5,2.7,2.3,4.1l0.1,0.2L24.9,23c-3.1,0.7-5.8,2.5-7.7,5
	c-1.1,1.4-1.6,3.2-1.4,5c0.2,2.7,1.5,5.3,3.5,7.1c1.2,1.2,2.6,2.1,4.1,2.8c0.1,0,0.2,0.1,0.3,0.2c0.5,1.3,1.1,2.7,1.6,4.1
	c-0.2-0.1-0.4-0.1-0.6-0.2c-2.3-0.8-4.6-1.8-6.7-3.1c-2-1.3-4-2.7-5.7-4.4C10,37.5,8.1,35,6.7,32.3c-1.2-2.4-2.2-4.9-2.8-7.6
	c-0.4-1.5-0.6-3-0.9-4.5c0-0.1,0-0.1,0-0.2C9.4,19.6,15.8,18.6,21.9,16.2z"/>
<path d="M25.5,47.9c-0.1-0.1-0.2-0.2-0.3-0.3c-2-0.6-4-1.4-5.9-2.5c-2.6-1.4-5-3.1-7.2-5.1c-1.8-1.7-3.4-3.6-4.7-5.7
	c-1.3-2.2-2.4-4.6-3.2-7.1c-0.7-2.3-1.3-4.6-1.6-7C2.6,20,2.5,20,2.3,20H1.9c-0.3,0.2-0.5,0.4-0.9,0.5c-0.1,0.2-0.2,0.3-0.3,0.5
	c0,0.4-0.1,0.7-0.2,1.1c0.6,1.1,1,2.3,1.2,3.6c0.4,0.9,0.7,1.9,0.9,2.9c0.9,1.5,1.5,3.2,1.7,5c0.6,0.9,1.1,1.9,1.4,2.9
	c0.2,0.3,0.4,0.6,0.7,1c0.9,0.4,1.6,1,2.2,1.8c0.9,0.7,1.7,1.6,2.2,2.6c0.9,0.1,1.8,0.6,2.4,1.3c0.8,0.1,1.5,0.5,2.1,1.1
	c0.8,0.1,1.4,0.5,2,1c0.7,0.2,1.4,0.7,1.9,1.2c0.2-0.1,0.5-0.1,0.7-0.1c1.1,0.1,2.1,0.6,2.8,1.5c0.4,0,0.9,0.1,1.3,0.3h0.4
	c0.3,0,0.5,0,0.8,0.1c0.1-0.1,0.1-0.2,0.2-0.3C25.6,48,25.5,47.9,25.5,47.9z"/>
<path d="M32.4,19.6c0,0.6-0.3,1.1-0.8,1.4L27.9,23c-0.5,0.4-1.3,0.4-1.8,0c-0.2-0.1-0.3-0.3-0.5-0.5c-1-1.8-2.1-3.7-3.1-5.5
	c-0.5-0.7-0.3-1.6,0.4-2.1c0.1-0.1,0.2-0.1,0.3-0.2c1.1-0.6,2.3-1.3,3.4-1.9c0.5-0.4,1.2-0.5,1.8-0.2c0.2,0.2,0.4,0.4,0.6,0.6
	c1.1,1.8,2.1,3.7,3.1,5.6C32.3,19.1,32.4,19.3,32.4,19.6z"/>
<path d="M69.2,72.6c-1.6-1.6-3.3-3.1-4.8-4.7c-1.8-1.9-3.5-4-5.2-6c-1-1.2-2-2.5-3-3.8c-1.3-1.7-2.6-3.5-3.9-5.2
	c-0.6-0.8-1.2-1.7-1.8-2.5l0.5-0.8c1.5-2.3,2.9-4.6,4.3-6.9c1.3-2.1,2.6-4.3,3.9-6.5c1.2-2,2.3-4,3.5-6c1-1.8,2-3.5,3-5.3
	c0.3-0.6,0.7-1.2,1-1.9l-3.1-1.7c-0.3,0.6-0.7,1.1-1,1.6c-1.1,2-2.4,4-3.6,5.9s-2.3,3.7-3.5,5.5c-1.3,2-2.6,4-4,6s-2.5,3.8-3.8,5.7
	l-0.2,0.3l-0.2-0.3c-1.3-1.9-2.6-3.8-3.8-5.7s-2.7-4-4-6c-1.2-1.8-2.4-3.7-3.5-5.5S33.6,25,32.4,23c-0.3-0.5-0.7-1.1-1-1.6l-3.1,1.7
	c0.4,0.6,0.7,1.3,1,1.9c1,1.8,2,3.5,3,5.3c1.2,2,2.3,4,3.5,6c1.3,2.2,2.6,4.3,3.9,6.5c1.4,2.3,2.9,4.6,4.3,6.9l0.5,0.8
	c-0.6,0.8-1.2,1.7-1.8,2.5c-1.3,1.8-2.6,3.5-3.9,5.2c-1,1.3-2,2.6-3,3.8c-1.7,2-3.4,4.1-5.2,6c-1.5,1.6-3.2,3.2-4.8,4.7
	c-0.5,0.4-0.7,1.1-0.4,1.7l1.5,3.8c0.2,0.6,0.9,1,1.5,0.8c0.2-0.1,0.4-0.2,0.5-0.3c0.6-0.6,1.1-1.2,1.7-1.8c1-1.2,2.1-2.4,3.1-3.6
	c1.5-1.8,3-3.7,4.5-5.6c1.6-2.1,3.2-4.3,4.8-6.5c1.3-1.9,2.6-3.8,3.9-5.6c0.2-0.3,0.4-0.5,0.5-0.8c0.2,0.3,0.4,0.5,0.5,0.8
	c1.3,1.9,2.6,3.8,3.9,5.6c1.6,2.2,3.2,4.3,4.8,6.5c1.5,1.9,3,3.7,4.5,5.6c1,1.2,2.1,2.4,3.1,3.6c0.5,0.6,1.1,1.2,1.7,1.8
	c0.4,0.5,1.2,0.5,1.7,0.1c0.2-0.1,0.3-0.3,0.3-0.5l1.5-3.8C69.9,73.8,69.7,73,69.2,72.6z"/>
<path d="M73.3,16.2c-0.2,0.9-0.6,1.7-1.1,2.4c-0.7,1.4-1.5,2.7-2.3,4.1l-0.1,0.2l0.5,0.1c3.1,0.7,5.8,2.5,7.7,5
	c1.1,1.4,1.6,3.2,1.4,5c-0.2,2.7-1.5,5.3-3.5,7.1c-1.2,1.2-2.6,2.1-4.1,2.8c-0.1,0-0.2,0.1-0.3,0.2c-0.6,1.3-1.1,2.7-1.6,4.1
	c0.2-0.1,0.4-0.1,0.6-0.2c2.3-0.8,4.6-1.8,6.7-3.1c2-1.3,4-2.7,5.7-4.4c2.3-2.1,4.2-4.6,5.6-7.4c1.2-2.4,2.2-4.9,2.8-7.5
	c0.4-1.5,0.6-3,0.9-4.5c0-0.1,0-0.1,0-0.2C85.8,19.6,79.4,18.6,73.3,16.2z"/>
<path d="M94.2,20.6c-0.4-0.1-0.7-0.2-1-0.4c-0.2,0-0.4-0.1-0.6-0.1c0,0.1,0,0.1-0.1,0.2c-0.3,2.4-0.9,4.7-1.6,6.9
	c-0.8,2.5-1.9,4.9-3.2,7.1c-1.3,2.1-2.9,4.1-4.7,5.8c-2.2,2-4.6,3.8-7.2,5.2C74,46.2,72,47,70,47.6c-0.1,0.1-0.3,0.2-0.3,0.3
	c-0.1,0.1-0.1,0.2-0.2,0.4c0.3,0,0.6,0.1,0.8,0.2l0.3-0.1c0,0,0.1,0,0.1,0l0.5-0.1h0.4c0.2-0.1,0.4-0.2,0.7-0.3
	c0.3-0.5,0.9-0.9,1.5-1l0.3-0.1c0.3-0.2,0.7-0.2,1-0.3c0.2-0.2,0.4-0.3,0.6-0.3c0.3-0.1,0.7-0.2,1-0.3c0.1-0.1,0.3-0.2,0.4-0.2
	c1.1-0.7,2.2-1.2,3.4-1.7h0.1c0.2-0.3,0.6-0.6,0.9-0.7c0.1-0.1,0.2-0.1,0.4-0.1l0.2-0.2c1.5-1.8,3.3-3.5,5.2-4.9
	c0.2-0.3,0.5-0.6,0.9-0.8c0.2-0.6,0.6-1.2,1-1.8c0.2-1.1,0.8-2,1.7-2.6c0-1.2,0.6-2.3,1.6-2.9c0-0.9,0.2-1.9,0.6-2.7
	c0.1-0.4,0.3-0.8,0.5-1.2c0-0.1,0-0.2,0-0.3c0-0.5,0.2-1,0.3-1.4c0.1-0.3,0.3-0.6,0.5-0.9v-0.4c0-0.6,0-1.1,0.1-1.7
	C94.4,21.2,94.3,20.9,94.2,20.6z"/>
<path d="M62.8,19.6c0,0.6,0.3,1.1,0.8,1.4l3.7,2.1c0.5,0.4,1.3,0.4,1.8,0c0.2-0.1,0.3-0.3,0.5-0.5c1-1.8,2.1-3.7,3.1-5.5
	c0.5-0.7,0.3-1.6-0.4-2.1c-0.1-0.1-0.2-0.1-0.3-0.2c-1.1-0.6-2.3-1.3-3.4-1.9c-0.5-0.4-1.2-0.5-1.8-0.1c-0.2,0.2-0.4,0.4-0.6,0.6
	c-1.1,1.8-2.1,3.7-3.2,5.6C62.9,19.1,62.8,19.3,62.8,19.6z"/>
<path d="M71.9,14.3c0.2-0.4,0.4-0.8,0.6-1.1c0.2-0.4,0.1-0.9-0.3-1.2c0,0,0,0,0,0c-0.5-0.3-1.1-0.6-1.7-0.9
	c-0.4-0.2-0.9-0.1-1.2,0.3c-0.2,0.3-0.4,0.7-0.6,1.1L71.9,14.3z"/>
<path d="M23.3,14.3c-0.2-0.4-0.4-0.8-0.6-1.1c-0.2-0.4-0.1-0.9,0.3-1.2c0,0,0,0,0,0c0.5-0.3,1.1-0.6,1.6-0.9
	c0.4-0.2,0.9-0.1,1.1,0.3c0.2,0.3,0.4,0.7,0.6,1.1L23.3,14.3z"/>
</svg>
